<?xml version="1.0" encoding="UTF-8" standalone="no"?>
<svg
   xmlns:dc="http://purl.org/dc/elements/1.1/"
   xmlns:cc="http://creativecommons.org/ns#"
   xmlns:rdf="http://www.w3.org/1999/02/22-rdf-syntax-ns#"
   xmlns:svg="http://www.w3.org/2000/svg"
   xmlns="http://www.w3.org/2000/svg"
   xmlns:sodipodi="http://sodipodi.sourceforge.net/DTD/sodipodi-0.dtd"
   xmlns:inkscape="http://www.inkscape.org/namespaces/inkscape"
   width="210mm"
   height="297mm"
   viewBox="0 0 210 297"
   version="1.1"
   id="svg2207"
   inkscape:version="1.0.2 (e86c8708, 2021-01-15)"
   sodipodi:docname="q sciences logosvg.svg">
  <defs
     id="defs2201">
    <linearGradient
       x1="0"
       y1="0"
       x2="1"
       y2="0"
       gradientUnits="userSpaceOnUse"
       gradientTransform="matrix(32.812172,0,0,-32.812172,244.32211,83.573242)"
       spreadMethod="pad"
       id="linearGradient1804">
      <stop
         style="stop-opacity:1;stop-color:#e9e8e9"
         offset="0"
         id="stop1798" />
      <stop
         style="stop-opacity:1;stop-color:#e9e8e9"
         offset="0.49874184"
         id="stop1800" />
      <stop
         style="stop-opacity:1;stop-color:#505052"
         offset="1"
         id="stop1802" />
    </linearGradient>
    <linearGradient
       x1="0"
       y1="0"
       x2="1"
       y2="0"
       gradientUnits="userSpaceOnUse"
       gradientTransform="matrix(-1.7e-6,38.135384,38.135384,1.7e-6,248.43822,83.908089)"
       spreadMethod="pad"
       id="linearGradient1782">
      <stop
         style="stop-opacity:1;stop-color:#ffffff"
         offset="0"
         id="stop1776" />
      <stop
         style="stop-opacity:1;stop-color:#ffffff"
         offset="0.49874184"
         id="stop1778" />
      <stop
         style="stop-opacity:1;stop-color:#505052"
         offset="1"
         id="stop1780" />
    </linearGradient>
    <linearGradient
       x1="0"
       y1="0"
       x2="1"
       y2="0"
       gradientUnits="userSpaceOnUse"
       gradientTransform="matrix(36.261108,0,0,-36.261108,244.3221,117.93309)"
       spreadMethod="pad"
       id="linearGradient1760">
      <stop
         style="stop-opacity:1;stop-color:#eeeded"
         offset="0"
         id="stop1752" />
      <stop
         style="stop-opacity:1;stop-color:#eeeded"
         offset="0.00027415"
         id="stop1754" />
      <stop
         style="stop-opacity:1;stop-color:#eeeded"
         offset="0.71849968"
         id="stop1756" />
      <stop
         style="stop-opacity:1;stop-color:#525455"
         offset="1"
         id="stop1758" />
    </linearGradient>
    <linearGradient
       x1="0"
       y1="0"
       x2="1"
       y2="0"
       gradientUnits="userSpaceOnUse"
       gradientTransform="matrix(1.2e-6,-28.292204,-28.292204,-1.2e-6,276.47775,122.04348)"
       spreadMethod="pad"
       id="linearGradient1736">
      <stop
         style="stop-opacity:1;stop-color:#6a6c6e"
         offset="0"
         id="stop1730" />
      <stop
         style="stop-opacity:1;stop-color:#fffffc"
         offset="0.93681203"
         id="stop1732" />
      <stop
         style="stop-opacity:1;stop-color:#fffffc"
         offset="1"
         id="stop1734" />
    </linearGradient>
    <clipPath
       clipPathUnits="userSpaceOnUse"
       id="clipPath1652">
      <path
         d="M 0,612 H 792 V 0 H 0 Z"
         id="path1650" />
    </clipPath>
    <clipPath
       clipPathUnits="userSpaceOnUse"
       id="clipPath1652-2">
      <path
         d="M 0,612 H 792 V 0 H 0 Z"
         id="path1650-0" />
    </clipPath>
    <clipPath
       clipPathUnits="userSpaceOnUse"
       id="clipPath1814">
      <path
         d="M 0,612 H 792 V 0 H 0 Z"
         id="path1812" />
    </clipPath>
  </defs>
  <sodipodi:namedview
     id="base"
     pagecolor="#ffffff"
     bordercolor="#666666"
     borderopacity="1.0"
     inkscape:pageopacity="0.0"
     inkscape:pageshadow="2"
     inkscape:zoom="0.62491043"
     inkscape:cx="647.154"
     inkscape:cy="592.84299"
     inkscape:document-units="mm"
     inkscape:current-layer="layer1"
     inkscape:document-rotation="0"
     showgrid="false"
     inkscape:window-width="1596"
     inkscape:window-height="943"
     inkscape:window-x="26"
     inkscape:window-y="1125"
     inkscape:window-maximized="0" />
  <metadata
     id="metadata2204">
    <rdf:RDF>
      <cc:Work
         rdf:about="">
        <dc:format>image/svg+xml</dc:format>
        <dc:type
           rdf:resource="http://purl.org/dc/dcmitype/StillImage" />
        <dc:title></dc:title>
      </cc:Work>
    </rdf:RDF>
  </metadata>
  <g
     inkscape:label="Layer 1"
     inkscape:groupmode="layer"
     id="layer1">
    <g
       id="g1646"
       style="display:inline"
       transform="matrix(0.35277777,0,0,-0.35277777,35.215405,215.84628)">
      <g
         id="g1648"
         clip-path="url(#clipPath1652-2)">
        <g
           id="g1654"
           transform="translate(126.9532,180.7566)">
          <path
             d="M 0,0 0.969,2.464 H 1.592 V -0.631 H 1.187 V 2.081 H 1.172 L 0.105,-0.631 h -0.241 l -1.066,2.712 h -0.015 v -2.712 h -0.406 v 3.095 h 0.646 M -3.583,2.103 h -0.999 v 0.361 h 2.404 V 2.103 h -1 v -2.734 h -0.405 z"
             style="fill:#ffffff;fill-opacity:1;fill-rule:nonzero;stroke:none"
             id="path1656" />
        </g>
        <g
           id="g1658"
           transform="translate(40.0152,161.3308)">
          <path
             d="m 0,0 c -0.229,0.087 -0.442,0.1 -0.686,0.178 -1.721,0.605 -2.408,1.375 -2.408,2.699 0,1.301 0.71,2.838 2.692,2.838 1.394,0 2.375,-0.811 2.736,-1.114 L 2.765,4.162 3.937,5.741 3.563,6.02 c -1.181,1.085 -2.47,1.566 -3.95,1.566 -1.374,0 -2.592,-0.442 -3.408,-1.364 -0.873,-0.867 -1.313,-2.184 -1.226,-3.557 0.143,-3.239 3.061,-4.083 4.015,-4.407 L -0.813,-1.8 c 2.119,-0.656 4.042,-1.406 4.042,-3.386 0,-2.049 -1.879,-3.198 -3.631,-3.198 -1.315,0 -2.528,0.605 -3.629,1.824 l -0.38,0.364 -1.338,-1.399 0.349,-0.322 c 1.449,-1.553 3.163,-2.347 5.04,-2.347 3.219,0 5.533,2.17 5.533,5.108 C 5.173,-1.7 2.058,-0.661 0,0"
             style="fill:#ffffff;fill-opacity:1;fill-rule:nonzero;stroke:none"
             id="path1660" />
        </g>
        <g
           id="g1662"
           transform="translate(63.9678,153.8523)">
          <path
             d="m 0,0 c -1.055,-0.555 -2.158,-0.878 -3.37,-0.878 -3.876,0 -7.009,3.191 -7.009,7.085 0,3.897 3.133,7.066 7.009,7.066 1.175,0 2.326,-0.338 3.396,-0.912 L 0.39,12.165 1.698,13.627 1.17,13.985 c -1.352,0.798 -2.901,1.188 -4.54,1.188 -4.926,0 -8.907,-4.045 -8.907,-8.966 0,-4.971 3.981,-8.993 8.907,-8.993 1.628,0 3.184,0.463 4.566,1.226 l 0.581,0.385 -1.444,1.374 z"
             style="fill:#ffffff;fill-opacity:1;fill-rule:nonzero;stroke:none"
             id="path1664" />
        </g>
        <path
           d="m 73.625,151.283 h 1.927 v 17.525 h -1.927 z"
           style="fill:#ffffff;fill-opacity:1;fill-rule:nonzero;stroke:none"
           id="path1666" />
        <g
           id="g1668"
           transform="translate(87.229,159.219)">
          <path
             d="M 0,0 H 7.853 V 1.789 H 0 V 7.8 H 8.777 V 9.591 H -1.899 V -7.935 H 9.115 v 1.789 H 0 Z"
             style="fill:#ffffff;fill-opacity:1;fill-rule:nonzero;stroke:none"
             id="path1670" />
        </g>
        <g
           id="g1672"
           transform="translate(117.8228,155.8445)">
          <path
             d="M 0,0 -13.559,13.181 V -4.561 h 1.945 L -11.618,8.672 1.896,-4.561 v 17.525 h -1.897 z"
             style="fill:#ffffff;fill-opacity:1;fill-rule:nonzero;stroke:none"
             id="path1674" />
        </g>
        <g
           id="g1676"
           transform="translate(138.5181,153.8523)">
          <path
             d="m 0,0 c -1.056,-0.555 -2.208,-0.878 -3.374,-0.878 -3.87,0 -7.054,3.191 -7.054,7.085 0,3.897 3.184,7.066 7.054,7.066 1.13,0 2.33,-0.338 3.392,-0.912 l 0.325,-0.196 1.308,1.462 -0.53,0.358 c -1.351,0.798 -2.898,1.188 -4.495,1.188 -4.933,0 -8.954,-4.045 -8.954,-8.966 0,-4.971 4.021,-8.993 8.954,-8.993 1.585,0 3.14,0.463 4.521,1.226 l 0.579,0.385 -1.4,1.374 z"
             style="fill:#ffffff;fill-opacity:1;fill-rule:nonzero;stroke:none"
             id="path1678" />
        </g>
        <g
           id="g1680"
           transform="translate(149.481,159.219)">
          <path
             d="M 0,0 H 7.854 V 1.789 H 0 V 7.8 H 8.786 V 9.591 H -1.899 V -7.935 H 9.103 v 1.789 H 0 Z"
             style="fill:#ffffff;fill-opacity:1;fill-rule:nonzero;stroke:none"
             id="path1682" />
        </g>
        <g
           id="g1684"
           transform="translate(170.9312,161.3308)">
          <path
             d="m 0,0 c -0.247,0.087 -0.458,0.1 -0.659,0.178 -1.763,0.605 -2.45,1.375 -2.45,2.699 0,1.301 0.712,2.838 2.7,2.838 1.385,0 2.384,-0.811 2.728,-1.114 L 2.75,4.162 3.946,5.741 3.592,6.02 C 2.365,7.105 1.076,7.586 -0.358,7.586 -1.777,7.586 -2.973,7.144 -3.813,6.222 -4.653,5.355 -5.124,4.038 -5.035,2.665 -4.892,-0.574 -1.969,-1.418 -1,-1.742 L -0.831,-1.8 c 2.146,-0.652 4.088,-1.406 4.088,-3.386 0,-2.049 -1.921,-3.198 -3.666,-3.198 -1.315,0 -2.536,0.605 -3.639,1.824 l -0.378,0.364 -1.34,-1.399 0.352,-0.322 c 1.467,-1.553 3.162,-2.347 5.07,-2.347 3.188,0 5.5,2.17 5.5,5.108 C 5.156,-1.7 2.041,-0.661 0,0"
             style="fill:#ffffff;fill-opacity:1;fill-rule:nonzero;stroke:none"
             id="path1686" />
        </g>
        <g
           id="g1688"
           transform="translate(296.4317,104.3928)">
          <path
             d="m 0,0 c -0.281,0.107 -0.543,0.123 -0.842,0.22 -2.115,0.743 -2.96,1.689 -2.96,3.316 0,1.599 0.873,3.488 3.308,3.488 1.713,0 2.918,-0.998 3.363,-1.369 l 0.529,-0.54 1.44,1.942 -0.46,0.341 C 2.927,8.732 1.343,9.323 -0.475,9.323 -2.164,9.323 -3.66,8.78 -4.664,7.647 -5.736,6.581 -6.278,4.963 -6.17,3.275 c 0.176,-3.98 3.761,-5.018 4.934,-5.416 L -1,-2.211 c 2.605,-0.807 4.968,-1.728 4.968,-4.161 0,-2.519 -2.309,-3.931 -4.462,-3.931 -1.616,0 -3.106,0.743 -4.46,2.241 l -0.466,0.448 -1.644,-1.72 0.427,-0.395 c 1.782,-1.909 3.888,-2.884 6.194,-2.884 3.957,0 6.8,2.667 6.8,6.277 C 6.357,-2.089 2.53,-0.812 0,0"
             style="fill:#ffffff;fill-opacity:1;fill-rule:nonzero;stroke:none"
             id="path1690" />
        </g>
        <g
           id="g1692"
           transform="translate(325.8682,95.2024)">
          <path
             d="m 0,0 c -1.296,-0.682 -2.652,-1.079 -4.142,-1.079 -4.762,0 -8.614,3.923 -8.614,8.707 0,4.79 3.852,8.684 8.614,8.684 1.445,0 2.859,-0.416 4.174,-1.122 l 0.447,-0.24 1.608,1.797 -0.65,0.44 c -1.661,0.98 -3.565,1.459 -5.579,1.459 -6.054,0 -10.946,-4.97 -10.946,-11.018 0,-6.108 4.892,-11.052 10.946,-11.052 2.001,0 3.914,0.57 5.612,1.507 l 0.714,0.473 -1.776,1.689 z"
             style="fill:#ffffff;fill-opacity:1;fill-rule:nonzero;stroke:none"
             id="path1694" />
        </g>
        <path
           d="m 337.735,92.046 h 2.369 v 21.537 h -2.369 z"
           style="fill:#ffffff;fill-opacity:1;fill-rule:nonzero;stroke:none"
           id="path1696" />
        <g
           id="g1698"
           transform="translate(354.4546,101.7981)">
          <path
             d="M 0,0 H 9.65 V 2.198 H 0 v 7.387 h 10.787 v 2.201 H -2.334 V -9.751 h 13.536 v 2.198 L 0,-7.553 Z"
             style="fill:#ffffff;fill-opacity:1;fill-rule:nonzero;stroke:none"
             id="path1700" />
        </g>
        <g
           id="g1702"
           transform="translate(392.0523,97.6506)">
          <path
             d="M 0,0 -16.663,16.199 V -5.605 h 2.39 L -14.277,10.658 2.33,-5.605 v 21.538 h -2.332 z"
             style="fill:#ffffff;fill-opacity:1;fill-rule:nonzero;stroke:none"
             id="path1704" />
        </g>
        <g
           id="g1706"
           transform="translate(417.4854,95.2024)">
          <path
             d="m 0,0 c -1.298,-0.682 -2.715,-1.079 -4.146,-1.079 -4.756,0 -8.67,3.923 -8.67,8.707 0,4.79 3.914,8.684 8.67,8.684 1.388,0 2.863,-0.416 4.167,-1.122 l 0.4,-0.24 1.608,1.797 -0.651,0.44 c -1.662,0.98 -3.562,1.459 -5.524,1.459 -6.063,0 -11.004,-4.97 -11.004,-11.018 0,-6.108 4.941,-11.052 11.004,-11.052 1.948,0 3.858,0.57 5.556,1.507 l 0.711,0.473 -1.722,1.689 z"
             style="fill:#ffffff;fill-opacity:1;fill-rule:nonzero;stroke:none"
             id="path1708" />
        </g>
        <g
           id="g1710"
           transform="translate(430.958,101.7981)">
          <path
             d="M 0,0 H 9.651 V 2.198 H 0 v 7.387 h 10.797 v 2.201 H -2.335 V -9.751 h 13.522 v 2.198 L 0,-7.553 Z"
             style="fill:#ffffff;fill-opacity:1;fill-rule:nonzero;stroke:none"
             id="path1712" />
        </g>
        <g
           id="g1714"
           transform="translate(457.3184,104.3928)">
          <path
             d="m 0,0 c -0.303,0.107 -0.562,0.123 -0.81,0.22 -2.167,0.743 -3.011,1.689 -3.011,3.316 0,1.599 0.875,3.488 3.318,3.488 1.702,0 2.93,-0.998 3.354,-1.369 L 3.379,5.115 4.849,7.057 4.415,7.398 C 2.906,8.732 1.322,9.323 -0.44,9.323 -2.184,9.323 -3.653,8.78 -4.685,7.647 -5.719,6.581 -6.297,4.963 -6.187,3.275 c 0.176,-3.98 3.767,-5.018 4.958,-5.416 l 0.208,-0.07 c 2.637,-0.802 5.023,-1.728 5.023,-4.161 0,-2.519 -2.359,-3.931 -4.505,-3.931 -1.616,0 -3.116,0.743 -4.472,2.241 l -0.464,0.448 -1.647,-1.72 0.433,-0.395 c 1.802,-1.909 3.885,-2.884 6.23,-2.884 3.918,0 6.759,2.667 6.759,6.277 C 6.336,-2.089 2.509,-0.812 0,0"
             style="fill:#ffffff;fill-opacity:1;fill-rule:nonzero;stroke:none"
             id="path1716" />
        </g>
      </g>
    </g>
    <g
       id="g1718"
       style="display:inline"
       transform="matrix(0.35277777,0,0,-0.35277777,35.215405,215.84628)">
      <g
         id="g1720">
        <g
           id="g1726">
          <g
             id="g1728">
            <path
               d="m 272.372,93.751 8.211,14.047 v 6.023 l -8.211,8.223 z"
               style="fill:url(#linearGradient1736);stroke:none"
               id="path1738" />
          </g>
        </g>
      </g>
    </g>
    <g
       id="g1740"
       style="display:inline"
       transform="matrix(0.35277777,0,0,-0.35277777,35.215405,215.84628)">
      <g
         id="g1742">
        <g
           id="g1748">
          <g
             id="g1750">
            <path
               d="m 252.554,122.044 -8.232,-8.222 h 36.261 l -8.211,8.222 z"
               style="fill:url(#linearGradient1760);stroke:none"
               id="path1762" />
          </g>
        </g>
      </g>
    </g>
    <g
       id="g1764"
       style="display:inline"
       transform="matrix(0.35277777,0,0,-0.35277777,35.215405,215.84628)">
      <g
         id="g1766">
        <g
           id="g1772">
          <g
             id="g1774">
            <path
               d="M 244.322,113.822 V 92.119 l 8.232,-8.21 v 29.913 8.222 z"
               style="fill:url(#linearGradient1782);stroke:none"
               id="path1784" />
          </g>
        </g>
      </g>
    </g>
    <g
       id="g1786"
       style="display:inline"
       transform="matrix(0.35277777,0,0,-0.35277777,35.215405,215.84628)">
      <g
         id="g1788">
        <g
           id="g1794">
          <g
             id="g1796">
            <path
               d="m 244.322,92.121 8.232,-8.212 h 11.629 c 9.968,0 12.947,-8.883 12.947,-8.883 v 0 c 0,0 0.54,17.095 -9.735,17.095 v 0 z"
               style="fill:url(#linearGradient1804);stroke:none"
               id="path1806" />
          </g>
        </g>
      </g>
    </g>
    <g
       id="g1808"
       style="display:inline"
       transform="matrix(0.35277777,0,0,-0.35277777,35.215405,215.84628)">
      <g
         id="g1810"
         clip-path="url(#clipPath1814)">
        <g
           id="g1816"
           transform="translate(472.1739,92.3762)">
          <path
             d="M 0,0 1.226,3.118 H 2.015 V -0.799 H 1.501 V 2.633 H 1.482 L 0.133,-0.799 H -0.172 L -1.521,2.633 H -1.54 v -3.432 h -0.514 v 3.917 h 0.818 M -4.534,2.661 h -1.265 v 0.457 h 3.042 V 2.661 h -1.264 v -3.46 h -0.513 z"
             style="fill:#ffffff;fill-opacity:1;fill-rule:nonzero;stroke:none"
             id="path1818" />
        </g>
        <g
           id="g1820"
           transform="translate(296.4532,210.28)">
          <path
             d="m 0,0 c -0.282,0.107 -0.544,0.122 -0.843,0.219 -2.115,0.744 -2.959,1.689 -2.959,3.316 0,1.599 0.872,3.488 3.307,3.488 1.713,0 2.919,-0.997 3.364,-1.369 L 3.398,5.115 4.838,7.056 4.378,7.397 C 2.927,8.732 1.343,9.323 -0.475,9.323 -2.165,9.323 -3.66,8.779 -4.664,7.647 -5.736,6.581 -6.278,4.962 -6.17,3.275 c 0.176,-3.98 3.76,-5.018 4.934,-5.416 L -1,-2.212 c 2.605,-0.806 4.967,-1.728 4.967,-4.161 0,-2.519 -2.308,-3.931 -4.462,-3.931 -1.616,0 -3.105,0.744 -4.459,2.242 l -0.466,0.447 -1.644,-1.719 0.427,-0.396 c 1.782,-1.908 3.888,-2.884 6.194,-2.884 3.957,0 6.8,2.667 6.8,6.278 C 6.357,-2.089 2.529,-0.812 0,0"
             style="fill:#ffffff;fill-opacity:1;fill-rule:nonzero;stroke:none"
             id="path1822" />
        </g>
        <g
           id="g1824"
           transform="translate(325.8892,201.0891)">
          <path
             d="m 0,0 c -1.296,-0.681 -2.652,-1.079 -4.142,-1.079 -4.762,0 -8.613,3.922 -8.613,8.706 0,4.791 3.851,8.685 8.613,8.685 1.445,0 2.859,-0.416 4.174,-1.121 l 0.447,-0.241 1.608,1.797 -0.649,0.44 c -1.662,0.98 -3.565,1.459 -5.58,1.459 -6.054,0 -10.945,-4.97 -10.945,-11.019 0,-6.107 4.891,-11.051 10.945,-11.051 2.001,0 3.914,0.57 5.612,1.507 l 0.714,0.473 -1.776,1.689 z"
             style="fill:#ffffff;fill-opacity:1;fill-rule:nonzero;stroke:none"
             id="path1826" />
        </g>
        <path
           d="m 337.757,197.933 h 2.368 v 21.537 h -2.368 z"
           style="fill:#ffffff;fill-opacity:1;fill-rule:nonzero;stroke:none"
           id="path1828" />
        <g
           id="g1830"
           transform="translate(354.4756,207.6848)">
          <path
             d="M 0,0 H 9.65 V 2.199 H 0 v 7.386 h 10.787 v 2.201 H -2.334 V -9.751 h 13.536 v 2.198 L 0,-7.553 Z"
             style="fill:#ffffff;fill-opacity:1;fill-rule:nonzero;stroke:none"
             id="path1832" />
        </g>
        <g
           id="g1834"
           transform="translate(392.0733,203.5373)">
          <path
             d="M 0,0 -16.663,16.199 V -5.605 h 2.39 L -14.277,10.658 2.33,-5.605 v 21.538 h -2.332 z"
             style="fill:#ffffff;fill-opacity:1;fill-rule:nonzero;stroke:none"
             id="path1836" />
        </g>
        <g
           id="g1838"
           transform="translate(417.5069,201.0891)">
          <path
             d="m 0,0 c -1.299,-0.681 -2.715,-1.079 -4.146,-1.079 -4.756,0 -8.67,3.922 -8.67,8.706 0,4.791 3.914,8.685 8.67,8.685 1.388,0 2.863,-0.416 4.167,-1.121 l 0.4,-0.241 1.607,1.797 -0.651,0.44 c -1.661,0.98 -3.561,1.459 -5.523,1.459 -6.063,0 -11.004,-4.97 -11.004,-11.019 0,-6.107 4.941,-11.051 11.004,-11.051 1.947,0 3.858,0.57 5.555,1.507 l 0.712,0.473 -1.722,1.689 z"
             style="fill:#ffffff;fill-opacity:1;fill-rule:nonzero;stroke:none"
             id="path1840" />
        </g>
        <g
           id="g1842"
           transform="translate(430.9785,207.6848)">
          <path
             d="M 0,0 H 9.652 V 2.199 H 0 v 7.386 h 10.798 v 2.201 H -2.334 V -9.751 h 13.522 v 2.198 L 0,-7.553 Z"
             style="fill:#ffffff;fill-opacity:1;fill-rule:nonzero;stroke:none"
             id="path1844" />
        </g>
        <g
           id="g1846"
           transform="translate(457.3399,210.28)">
          <path
             d="m 0,0 c -0.303,0.107 -0.562,0.122 -0.811,0.219 -2.166,0.744 -3.01,1.689 -3.01,3.316 0,1.599 0.875,3.488 3.318,3.488 1.702,0 2.93,-0.997 3.353,-1.369 L 3.379,5.115 4.849,7.056 4.415,7.397 C 2.906,8.732 1.322,9.323 -0.44,9.323 -2.184,9.323 -3.653,8.779 -4.686,7.647 -5.719,6.581 -6.297,4.962 -6.187,3.275 c 0.175,-3.98 3.767,-5.018 4.958,-5.416 l 0.208,-0.071 c 2.637,-0.801 5.023,-1.728 5.023,-4.161 0,-2.519 -2.359,-3.931 -4.505,-3.931 -1.616,0 -3.116,0.744 -4.473,2.242 l -0.463,0.447 -1.647,-1.719 0.432,-0.396 c 1.803,-1.908 3.885,-2.884 6.231,-2.884 3.918,0 6.759,2.667 6.759,6.278 C 6.336,-2.089 2.509,-0.812 0,0"
             style="fill:#ffffff;fill-opacity:1;fill-rule:nonzero;stroke:none"
             id="path1848" />
        </g>
      </g>
    </g>
  </g>
</svg>
