<?xml version="1.0" encoding="UTF-8"?>
<svg width="24px" height="24px" viewBox="0 0 130 130" version="1.1" xmlns="http://www.w3.org/2000/svg" xmlns:xlink="http://www.w3.org/1999/xlink">
    <title>Account Profile Picture Icon</title>
    <defs>
        <filter color-interpolation-filters="auto" id="filter-1">
            <feColorMatrix in="SourceGraphic" type="matrix" values="0 0 0 0 1.000000 0 0 0 0 1.000000 0 0 0 0 1.000000 0 0 0 1.000000 0"></feColorMatrix>
        </filter>
        <path d="M0,62.847 C0,97.557 28.138,125.695 62.847,125.695 L62.847,125.695 C97.558,125.695 125.695,97.557 125.695,62.847 L125.695,62.847 C125.695,28.137 97.558,0 62.847,0 L62.847,0 C28.138,0 0,28.137 0,62.847 L0,62.847 Z" id="path-2"></path>
        <path d="M0,62.847 C0,97.557 28.138,125.695 62.847,125.695 L62.847,125.695 C97.558,125.695 125.695,97.557 125.695,62.847 L125.695,62.847 C125.695,28.137 97.558,0 62.847,0 L62.847,0 C28.138,0 0,28.137 0,62.847 L0,62.847 Z" id="path-4"></path>
    </defs>
    <g id="ARC-and-Shop-Q-icons" stroke="currentColor" stroke-width="1" fill="none" fill-rule="evenodd">
        <g id="Account-Profile-Picture-Icon" transform="translate(-536.000000, -553.000000)" filter="url(#filter-1)">
            <g transform="translate(538.000000, 555.000000)">
                <g id="Group-7" transform="translate(0.000000, 0.001200)">
                    <g id="Group-3" transform="translate(-0.000000, 0.000000)">
                        <mask id="mask-3" fill="white">
                            <use xlink:href="#path-2"></use>
                        </mask>
                        <g id="Clip-2"></g>
                        <path d="M92.2333,50.22 C92.2333,66.449 79.0773,79.606 62.8473,79.606 C46.6183,79.606 33.4623,66.449 33.4623,50.22 C33.4623,33.991 46.6183,20.834 62.8473,20.834 C79.0773,20.834 92.2333,33.991 92.2333,50.22 Z" id="Stroke-1" stroke="currentColor" stroke-width="3" stroke-linecap="round" stroke-linejoin="round" mask="url(#mask-3)"></path>
                    </g>
                    <g id="Group-6" transform="translate(-0.000000, 0.000000)">
                        <mask id="mask-5" fill="white">
                            <use xlink:href="#path-4"></use>
                        </mask>
                        <g id="Clip-5"></g>
                        <path d="M15.3114,127.142 C15.3114,100.889 36.5944,79.606 62.8474,79.606 C89.1014,79.606 110.3834,100.889 110.3834,127.142 L15.3114,127.142 Z" id="Stroke-4" stroke="currentColor" stroke-width="3" stroke-linecap="round" stroke-linejoin="round" mask="url(#mask-5)"></path>
                    </g>
                </g>
                <path d="M125.6952,62.848 C125.6952,97.558 97.5572,125.696 62.8472,125.696 C28.1372,125.696 0.0002,97.558 0.0002,62.848 C0.0002,28.138 28.1372,0 62.8472,0 C97.5572,0 125.6952,28.138 125.6952,62.848 Z" id="Stroke-8" stroke="currentColor" stroke-width="3"></path>
            </g>
        </g>
    </g>
</svg>