<svg id="Layer_1" data-name="Layer 1" xmlns="http://www.w3.org/2000/svg" viewBox="0 0 200 200"><defs><style>.cls-1{fill:none;stroke:currentColor;stroke-linecap:round;stroke-linejoin:round;stroke-width:3px;}</style></defs><circle class="cls-1" cx="131.06" cy="139.57" r="21.95"/><line class="cls-1" x1="131.06" y1="128.01" x2="131.06" y2="151.12"/><line class="cls-1" x1="142.61" y1="139.57" x2="119.51" y2="139.57"/><path class="cls-1" d="M108.07,161.17H49.17A2.19,2.19,0,0,1,47,159V61.73"/><path class="cls-1" d="M72.09,38.48h56.37a2.19,2.19,0,0,1,2.18,2.18v67.13"/><polygon class="cls-1" points="72.09 38.48 72.09 61.73 46.99 61.73 72.09 38.48"/><line class="cls-1" x1="61.67" y1="75.78" x2="115.96" y2="75.78"/><line class="cls-1" x1="61.67" y1="89.48" x2="115.96" y2="89.48"/><line class="cls-1" x1="61.67" y1="103.17" x2="115.96" y2="103.17"/><line class="cls-1" x1="61.67" y1="116.87" x2="115.96" y2="116.87"/><line class="cls-1" x1="61.67" y1="130.56" x2="102.35" y2="130.56"/><line class="cls-1" x1="61.67" y1="144.26" x2="99.48" y2="144.26"/></svg>