<?xml version="1.0" encoding="UTF-8"?>
<svg width="40px" height="48px" viewBox="0 0 40 48" version="1.1" xmlns="http://www.w3.org/2000/svg" xmlns:xlink="http://www.w3.org/1999/xlink">
    <title></title>
    <g id="Login" stroke="none" stroke-width="1" fill="none" fill-rule="evenodd">
        <g id="Sign-In" transform="translate(-308.000000, -157.000000)" fill="#FFFFFF" fill-rule="nonzero">
            <g id="sign-in-with-grooup" transform="translate(21.000000, 157.000000)">
                <g id="White-Logo-Square" transform="translate(287.000000, 0.000000)">
                    <path d="M20.2193181,11.0769231 C22.3977273,11.0769231 25.128409,9.61220589 26.7545455,7.65924985 C28.2272727,5.88938324 29.3011362,3.41767326 29.3011362,0.945963032 C29.3011362,0.610298779 29.2704545,0.274634526 29.2090909,0 C26.7852271,0.0915448421 23.8704545,1.61729179 22.1215908,3.66179267 C20.7409091,5.21805474 19.4829544,7.65924985 19.4829544,10.1614749 C19.4829544,10.5276541 19.5443183,10.8938334 19.575,11.0158931 C19.728409,11.0464083 19.9738635,11.0769231 20.2193181,11.0769231 Z M12.5488638,48 C15.525,48 16.8443183,46.0165288 20.5568182,46.0165288 C24.3306819,46.0165288 25.1590909,47.93897 28.4727273,47.93897 C31.725,47.93897 33.9034092,44.9485061 35.9590909,42.0190719 C38.2602271,38.6624284 39.2113636,35.3668151 39.2727273,35.2142403 C39.0579547,35.1532105 32.8295455,32.6204703 32.8295455,25.5104895 C32.8295455,19.3464717 37.7386364,16.5696121 38.0147726,16.3560076 C34.7625001,11.7177368 29.8227273,11.5956771 28.4727273,11.5956771 C24.821591,11.5956771 21.8454545,13.7927528 19.9738635,13.7927528 C17.9488638,13.7927528 15.2795455,11.7177368 12.1193181,11.7177368 C6.10568169,11.7177368 0,16.661157 0,25.9987286 C0,31.796567 2.27045455,37.9300699 5.06250013,41.897012 C7.45568169,45.2536555 9.54204532,48 12.5488638,48 Z" id=""></path>
                </g>
            </g>
        </g>
    </g>
</svg>