<svg id="Layer_1" data-name="Layer 1" xmlns="http://www.w3.org/2000/svg" viewBox="0 0 200 200"><defs><style>.cls-1{fill:none;stroke:currentColor;stroke-linecap:round;stroke-linejoin:round;stroke-width:3px;}</style></defs><circle class="cls-1" cx="73.76" cy="120.59" r="7.66"/><circle class="cls-1" cx="133.86" cy="120.59" r="7.66"/><path class="cls-1" d="M118.29,80.71h11a18.53,18.53,0,0,1,18.53,18.53V120.6h-6.26"/><polyline class="cls-1" points="113.44 106.01 59.85 106.01 59.85 120.6 66.09 120.6"/><polyline class="cls-1" points="81.43 120.6 113.44 120.6 126.19 120.6"/><polyline class="cls-1" points="59.85 73.38 118.3 73.38 118.3 106.02 59.85 106.02 59.85 73.38"/><polyline class="cls-1" points="130.61 80.75 130.61 101.5 147.79 101.5"/><line class="cls-1" x1="64.85" y1="80.75" x2="57.19" y2="80.75"/><line class="cls-1" x1="67.65" y1="97.69" x2="53.88" y2="97.69"/><line class="cls-1" x1="71.79" y1="89.7" x2="52.01" y2="89.7"/><path class="cls-1" d="M37.29,102.36A62.76,62.76,0,0,1,151.52,64.17"/><path class="cls-1" d="M162.71,97.64A62.76,62.76,0,0,1,48.48,135.83"/><polyline class="cls-1" points="46.77 148.47 47.98 135.04 61.29 137.22"/><polyline class="cls-1" points="138.38 63.45 151.82 64.55 151.94 51.06"/></svg>