<?xml version="1.0" encoding="UTF-8"?>
<svg id="Layer_1" data-name="Layer 1" xmlns="http://www.w3.org/2000/svg" viewBox="0 0 200 200">
  <defs>
    <style>
      .cls-1 {
        fill: none;
        stroke: currentColor;
        stroke-linecap: round;
        stroke-linejoin: round;
        stroke-width: 3px;
      }
    </style>
  </defs>
  <path class="cls-1" d="M137.18,130.33l-19.59-9.42c-.38-.18-.76-.34-1.16-.46-.15-.05-.33-.1-.52-.16-2.55-.72-5.29-.29-7.52,1.15l-7.38,4.78c-.13,.08-.26,.17-.38,.26-.59,.43-3.54,2.27-6.97-1.15-.1-.1-.2-.2-.31-.3-1.55-1.44-15.36-14.55-25.14-36.22,0,0-1.58-3.62,1.28-5.65,0,0,6.76-5,8.08-5.97,.1-.08,.21-.15,.32-.23,.56-.38,3.24-2.52,2.96-8.11l-1.77-21.32c-.11-1.29-.47-2.54-1.1-3.66-.81-1.46-2.2-3.19-4.49-4.03-.13-.05-.26-.09-.39-.15-1.01-.41-6.09-2.41-10.04-2.61-1.03-.05-2.05,.08-3.03,.38-3.93,1.17-15.82,5.92-18.65,20.98,0,0-1.7,10.08-.26,19.71,0,0,2.1,15.86,10,29.32,0,0,11.48,22.24,29.14,37.53,0,0,10.07,8.47,22.03,13.71,0,0,10.76,4.65,20.33,2.73,0,0,11.99-1.89,17.66-11.01,.55-.88,.93-1.85,1.14-2.86,.37-1.73,.76-4.84,.42-9.51,0,0-.5-5.79-4.65-7.74Z"/>
  <path class="cls-1" d="M152.71,112.23c7.08-32.18-13.23-63.95-45.41-71.04"/>
  <path class="cls-1" d="M138.38,108.91c5.33-24.24-9.96-48.17-34.2-53.5"/>
  <path class="cls-1" d="M124.03,106.98c3.75-17.03-7-33.85-24.03-37.6"/>
</svg>