<?xml version="1.0" encoding="UTF-8"?>
<svg id="Layer_1" data-name="Layer 1" xmlns="http://www.w3.org/2000/svg" viewBox="0 0 200 200">
  <defs>
    <style>
      .cls-1 {
        fill: none;
        stroke: currentColor;
        stroke-linecap: round;
        stroke-linejoin: round;
        stroke-width: 3px;
      }
    </style>
  </defs>
  <g>
    <g>
      <line class="cls-1" x1="60.42" y1="73.96" x2="127.57" y2="73.96"/>
      <line class="cls-1" x1="60.42" y1="93.97" x2="100.06" y2="93.97"/>
    </g>
    <path class="cls-1" d="m94,39.24c-31.9,0-57.76,20.02-57.76,44.72,0,13.09,7.26,24.87,18.84,33.04h0s0,25.29,0,25.29l16.96-16.96c6.77,2.16,14.18,3.35,21.95,3.35,31.9,0,57.76-20.02,57.76-44.72s-25.86-44.72-57.76-44.72Z"/>
  </g>
  <path class="cls-1" d="m156.61,93.96c4.53,5.6,7.15,12.22,7.15,19.31,0,10.66-5.91,20.24-15.34,26.9h0s0,20.59,0,20.59l-13.81-13.81c-5.51,1.76-11.54,2.73-17.87,2.73-16.23,0-30.54-6.37-38.99-16.05"/>
</svg>