<svg id="Layer_1" data-name="Layer 1" xmlns="http://www.w3.org/2000/svg" viewBox="0 0 200 200"><defs><style>.cls-1{fill:none;stroke:currentColor;stroke-linecap:round;stroke-linejoin:round;stroke-width:3px;}</style></defs><path class="cls-1" d="M110,98.3l2.79,2.79a6.92,6.92,0,0,0,9.76.29L158.2,65.74a6.93,6.93,0,0,0-.29-9.76L144,42.09a6.93,6.93,0,0,0-9.76-.29L98.62,77.44a6.92,6.92,0,0,0,.29,9.76L101.69,90"/><path class="cls-1" d="M114.27,93.08l1.17,1.17a3.52,3.52,0,0,0,5,0l30.64-30.64a3.54,3.54,0,0,0,0-5l-9.69-9.69a3.54,3.54,0,0,0-5,0L105.75,79.57a3.52,3.52,0,0,0,0,5l1.16,1.17"/><path class="cls-1" d="M90.83,100.87,88,98.07a7,7,0,0,0-9.84-.2L41.86,134.2a7,7,0,0,0,.2,9.85L56,157.94a7,7,0,0,0,9.85.2l36.33-36.33a7,7,0,0,0-.2-9.84l-2.79-2.79"/><path class="cls-1" d="M86.13,106.52,85,105.35a3.52,3.52,0,0,0-5,0L49.33,136a3.54,3.54,0,0,0,0,5L59,150.67a3.54,3.54,0,0,0,5,0L94.65,120a3.52,3.52,0,0,0,0-5l-1.16-1.17"/><rect class="cls-1" x="96.71" y="74.01" width="10.4" height="48.14" rx="4.48" transform="translate(99.21 -43.34) rotate(45)"/></svg>