<svg id="Layer_1" data-name="Layer 1" xmlns="http://www.w3.org/2000/svg" viewBox="0 0 200 200"><defs><style>.cls-1{fill:none;stroke:currentColor;stroke-linecap:round;stroke-linejoin:round;stroke-width:3px;}</style></defs><path class="cls-1" d="M100,99.89h0a9.46,9.46,0,0,1-9.51-9.36V82.15A9.46,9.46,0,0,1,100,72.79h0a9.46,9.46,0,0,1,9.51,9.36v8.38A9.46,9.46,0,0,1,100,99.89Z"/><path class="cls-1" d="M102.55,102.35l2.68.74,6.49,1.8s6.46,2.86,6.46,6.35v8.65a6.42,6.42,0,0,1-6.46,6.36H87.78a6.43,6.43,0,0,1-6.46-6.36v-8.65c0-3.49,6.46-6.35,6.46-6.35l6.49-1.8,2.9-.8"/><line class="cls-1" x1="97.17" y1="102.29" x2="97.17" y2="99.89"/><line class="cls-1" x1="102.55" y1="102.35" x2="102.55" y2="99.89"/><path class="cls-1" d="M105.23,103.09a9.76,9.76,0,0,1,.11,1.44c0,4.16-2.5,7.52-5.59,7.52s-5.58-3.36-5.58-7.52a9.77,9.77,0,0,1,.1-1.44"/><path class="cls-1" d="M90.49,82.1c1.74-1.85,4.18-3.87,6.46-3.35,1.82.41,2.22,2.12,4.17,3,1.55.7,4,.94,8.4-1.51"/><ellipse class="cls-1" cx="100" cy="99.89" rx="35.81" ry="35.25"/><polyline class="cls-1" points="125.28 75.04 125.34 74.99 131.67 68.75"/><ellipse class="cls-1" cx="135.94" cy="64.55" rx="6.03" ry="5.94"/><polyline class="cls-1" points="74.71 124.83 74.7 124.84 68.33 131.11"/><path class="cls-1" d="M68.33,139.51a5.89,5.89,0,0,0,0-8.4,6.1,6.1,0,0,0-8.53,0,5.87,5.87,0,0,0,0,8.4A6.1,6.1,0,0,0,68.33,139.51Z"/><polyline class="cls-1" points="74.71 75.04 74.66 74.99 68.33 68.75"/><path class="cls-1" d="M68.33,60.35a5.89,5.89,0,0,1,0,8.4,6.1,6.1,0,0,1-8.53,0,5.87,5.87,0,0,1,0-8.4A6.1,6.1,0,0,1,68.33,60.35Z"/><polyline class="cls-1" points="125.28 124.83 125.3 124.84 131.67 131.11"/><path class="cls-1" d="M140.2,131.11a6.1,6.1,0,0,0-8.53,0,5.89,5.89,0,0,0,0,8.4,6.1,6.1,0,0,0,8.53,0A5.87,5.87,0,0,0,140.2,131.11Z"/><polyline class="cls-1" points="135.76 99.93 135.8 99.93 146.48 99.93"/><path class="cls-1" d="M155,108.33a8.4,8.4,0,1,1,8.54-8.4A8.47,8.47,0,0,1,155,108.33Z"/><polyline class="cls-1" points="64.24 99.93 64.19 99.93 53.52 99.93"/><ellipse class="cls-1" cx="44.99" cy="99.93" rx="8.53" ry="8.4"/><polyline class="cls-1" points="100 64.73 100 64.64 100 54.17"/><path class="cls-1" d="M108.53,45.77a8.53,8.53,0,1,1-8.53-8.4A8.47,8.47,0,0,1,108.53,45.77Z"/><line class="cls-1" x1="100" y1="145.83" x2="100" y2="135.14"/><path class="cls-1" d="M108.53,154.23a8.53,8.53,0,1,0-8.53,8.4A8.47,8.47,0,0,0,108.53,154.23Z"/></svg>