<svg height='100px' width='100px'  fill="#000000" xmlns="http://www.w3.org/2000/svg" xmlns:xlink="http://www.w3.org/1999/xlink" version="1.1" x="0px" y="0px" viewBox="0 0 100 100" style="enable-background:new 0 0 100 100;" xml:space="preserve"><g><path d="M92.7,68.8c-1.2,0-2.2,1-2.2,2.2v9.2c0,5.7-4.6,10.3-10.3,10.3h-10c-1.2,0-2.2,1-2.2,2.2s1,2.2,2.2,2.2h10   c8.1,0,14.7-6.6,14.7-14.7V71C94.9,69.8,93.9,68.8,92.7,68.8z"></path><path d="M80.2,5.1h-10c-1.2,0-2.2,1-2.2,2.2s1,2.2,2.2,2.2h10c5.7,0,10.3,4.6,10.3,10.3v10.7c0,1.2,1,2.2,2.2,2.2s2.2-1,2.2-2.2   V19.8C94.9,11.7,88.3,5.1,80.2,5.1z"></path><path d="M68.9,48.9c1.5,0,2.7-1.2,2.8-2.7V39c0-1.6-1.2-2.8-2.8-2.8c-1.6,0-2.8,1.3-2.8,2.8v7.1C66.1,47.7,67.4,48.9,68.9,48.9z"></path><path d="M63.7,68.3c-3.6,3.6-8.4,5.6-13.3,5.6h-0.8c-5,0-9.7-2-13.3-5.6c-0.8-0.9-2.2-0.9-3.1,0c-0.9,0.8-0.9,2.2,0,3.1   c4.5,4.5,10.3,6.9,16.4,6.9h0.8c6.1,0,12-2.4,16.4-6.9c0.9-0.8,0.9-2.2,0-3.1C66,67.4,64.6,67.4,63.7,68.3z"></path><path d="M44.5,62.2H45c4.5,0,8.1-3.6,8.1-8V39c0-1.2-1-2.2-2.2-2.2s-2.2,1-2.2,2.2v15.1c0,2.1-1.7,3.7-3.7,3.7h-0.5   c-1.2,0-2.2,1-2.2,2.2S43.3,62.2,44.5,62.2z"></path><path d="M29.7,36.2c-1.6,0-2.8,1.3-2.8,2.8v7.1c0,1.6,1.3,2.8,2.8,2.8c1.6,0,2.8-1.2,2.8-2.7V39C32.5,37.4,31.2,36.2,29.7,36.2z"></path><path d="M7.3,32.7c1.2,0,2.2-1,2.2-2.2V19.8c0-5.7,4.6-10.3,10.3-10.3h10c1.2,0,2.2-1,2.2-2.2s-1-2.2-2.2-2.2h-10   c-8.1,0-14.7,6.6-14.7,14.7v10.7C5.1,31.7,6.1,32.7,7.3,32.7z"></path><path d="M29.7,90.5h-10c-5.7,0-10.3-4.6-10.3-10.3V71c0-1.2-1-2.2-2.2-2.2S5,69.8,5,71v9.2c0,8.1,6.6,14.7,14.7,14.7h10   c1.3,0,2.2-1,2.2-2.2S30.9,90.5,29.7,90.5z"></path></g></svg>