<?xml version="1.0" encoding="UTF-8"?>
<svg id="Layer_1" data-name="Layer 1" xmlns="http://www.w3.org/2000/svg" viewBox="0 0 200 200">
  <defs>
    <style>
      .cls-1 {
        fill: none;
        stroke: currentColor;
        stroke-linecap: round;
        stroke-linejoin: round;
        stroke-width: 3px;
      }
    </style>
  </defs>
  <path class="cls-1" d="m83.51,46.79c-20.68,0-37.5,16.82-37.5,37.5s16.82,37.5,37.5,37.5,37.5-16.82,37.5-37.5-16.82-37.5-37.5-37.5Z"/>
  <path class="cls-1" d="m162.32,145.08l-32.92-32.92c-.69-.69-1.91-.69-2.6,0l-1.04,1.04-3.49-3.49c4.81-7.3,7.62-16.04,7.62-25.42,0-25.57-20.8-46.37-46.37-46.37s-46.37,20.8-46.37,46.37,20.8,46.37,46.37,46.37c10.13,0,19.5-3.27,27.13-8.8l3.23,3.23-.94.94c-.72.72-.72,1.88,0,2.6l32.92,32.92c.36.36.83.54,1.3.54s.94-.18,1.3-.54l13.87-13.87c.34-.34.54-.81.54-1.3s-.19-.95-.54-1.3Z"/>
  <g>
    <path class="cls-1" d="m95.46,71.64s-.06-4.42-4.19-4.42h-15.32c-1.37,0-2.74.36-3.85,1.17-.94.69-1.78,1.75-1.78,3.32v5.88c0,1.78.7,3.53,2.07,4.66.91.75,2.18,1.32,3.89,1.25h14.73s5.12-.49,5.12,6.4c0,0,.17,2.04-.1,4.28-.37,2.99-2.93,5.23-5.95,5.23h-6.86s-7.89,0-7.89,0c0,0-4.75.34-4.75-5.35"/>
    <line class="cls-1" x1="83.05" y1="58.29" x2="83.05" y2="108.63"/>
  </g>
</svg>