<svg id="Layer_1" data-name="Layer 1" xmlns="http://www.w3.org/2000/svg" viewBox="0 0 200 200"><defs><style>.cls-1{fill:none;stroke:currentColor;stroke-linecap:round;stroke-linejoin:round;stroke-width:3px;}</style></defs><path class="cls-1" d="M33.06,152.44V47.57C34.64,42.76,38,41,43,41.08c8.73.19,17.47.12,26.2,0a7.69,7.69,0,0,1,6.92,3.52c1.23,1.77,2.49,3.53,3.62,5.38a3.75,3.75,0,0,0,3.68,1.85c24.77-.06,49.55,0,74.33,0,2.64,0,5.1.47,6.9,2.53A26.54,26.54,0,0,1,166.94,58v94.46c-1.56,4.83-4.94,6.54-9.91,6.49-15.29-.15-30.59-.05-45.88-.05q-34.74,0-69.47,0a11.47,11.47,0,0,1-2.92-.38C35.63,157.66,34.08,155.29,33.06,152.44Z"/><line class="cls-1" x1="33.06" y1="66.97" x2="166.94" y2="66.97"/></svg>