<?xml version="1.0" encoding="UTF-8"?>
<svg width="21px" height="21px" viewBox="0 0 21 21" version="1.1" xmlns="http://www.w3.org/2000/svg" xmlns:xlink="http://www.w3.org/1999/xlink">
    <title>Shape</title>
    <g id="Q-Connect-Library" stroke="none" stroke-width="1" fill="none" fill-rule="evenodd" opacity="0.83">
        <g id="Headers/main" transform="translate(-338.000000, -9.000000)" fill="#FFFFFF" fill-rule="nonzero">
            <g id="ic_notificationBell" transform="translate(338.000000, 6.000000)">
                <g id="noun_Bell_2612884" transform="translate(0.000000, 3.000000)">
                    <path d="M17.2872928,15.6102461 L17.2872928,8.91260673 C17.2872928,5.53741838 14.2127072,2.74234053 10.5,2.74234053 C6.78729282,2.74234053 3.71270718,5.53741838 3.71270718,8.91260673 L3.71270718,15.6102461 C3.71270718,15.92667 3.42265193,16.1376193 3.13259669,16.1376193 L1.85635359,16.1376193 C1.45027624,16.1376193 1.16022099,16.4013059 1.16022099,16.7704671 C1.16022099,17.086891 1.45027624,17.3505776 1.85635359,17.3505776 L19.1436464,17.3505776 C19.5497238,17.3505776 19.839779,17.086891 19.839779,16.7704671 C19.839779,16.4013059 19.5497238,16.1376193 19.1436464,16.1376193 L17.8674033,16.1376193 C17.5773481,16.1376193 17.2872928,15.92667 17.2872928,15.6102461 Z M7.83149171,2.10949272 C8.00552486,0.949271723 9.16574586,0 10.5,0 C11.8342541,0 12.9944751,0.949271723 13.1685083,2.10949272 C16.2430939,3.11150176 18.4475138,5.80110497 18.4475138,8.91260673 L18.4475138,15.0828729 L19.1436464,15.0828729 C20.1878453,15.0828729 21,15.8211954 21,16.7704671 C21,17.6670015 20.1878453,18.405324 19.1436464,18.405324 L13.980663,18.405324 C13.6325967,19.8819689 12.1823204,20.9894525 10.5,20.9894525 C8.81767956,20.9894525 7.36740331,19.8819689 7.01933702,18.405324 L1.85635359,18.405324 C0.812154696,18.405324 0,17.6670015 0,16.7704671 C0,15.8211954 0.812154696,15.0828729 1.85635359,15.0828729 L2.55248619,15.0828729 L2.55248619,8.91260673 C2.55248619,5.80110497 4.75690608,3.11150176 7.83149171,2.10949272 Z M11.8342541,1.79306881 C11.6022099,1.37117027 11.0801105,1.05474636 10.5,1.05474636 C9.9198895,1.05474636 9.39779006,1.37117027 9.16574586,1.79306881 C9.5718232,1.74033149 10.0359116,1.68759417 10.5,1.68759417 C10.9640884,1.68759417 11.4281768,1.74033149 11.8342541,1.79306881 Z M8.23756906,18.405324 C8.52762431,19.3018584 9.4558011,19.9347062 10.5,19.9347062 C11.5441989,19.9347062 12.4723757,19.3018584 12.7624309,18.405324 L8.23756906,18.405324 Z" id="Shape"></path>
                </g>
            </g>
        </g>
    </g>
</svg>