<?xml version="1.0" encoding="UTF-8"?>
<svg width="28pt" height="28pt" version="1.1" viewBox="0 0 1200 1200" xmlns="http://www.w3.org/2000/svg">
 <g fill="rgba(255,255,255,.83)">
  <path d="m880.8 436.8c-14.398 0-30 2.3984-42 8.3984-12-36-44.398-60-82.801-62.398-18-2.3984-34.801 2.3984-50.398 12-15.602-26.398-42-44.398-74.398-46.801-12 0-24 2.3984-36 6l-0.003906-90c0-50.398-38.398-92.398-86.398-97.199-26.398-2.3984-50.398 8.3984-68.398 24-18 18-28.801 42-28.801 66v343.2l-26.398-24c-42-36-82.801-42-116.4-21.602-21.602 12-36 32.398-42 58.801-6 26.398 0 52.801 14.398 74.398l217.2 328.8v86.398c0 15.602 14.398 30 30 30h373.2c15.602 0 30-14.398 30-30v-115.2l62.398-115.2c9.6016-20.398 15.602-40.801 15.602-62.398v-276c0-52.801-38.402-92.398-88.801-97.199zm28.801 373.2c0 12-3.6016 24-8.3984 34.801l-68.398 121.2c-2.3984 3.6016-3.6016 9.6016-3.6016 14.398v92.398l-310.8 0.003906v-64.801c0-6-2.3984-12-3.6016-15.602l-226.8-336c-6-8.3984-8.3984-18-6-28.801 2.3984-3.6016 3.6016-14.398 14.398-20.398 3.6016-2.3984 15.602-9.6016 48 15.602l50.398 44.398c9.6016 8.3984 14.398 20.398 14.398 30l0.003907 22.801c0 15.602 14.398 30 30 30 15.602 0 30-14.398 30-30v-462c0-8.3984 3.6016-15.602 9.6016-21.602s14.398-9.6016 24-8.3984c15.602 0 30 15.602 30 36v318c0 15.602 14.398 30 30 30 15.602 0 30-14.398 30-30v-140.4c0-8.3984 3.6016-15.602 9.6016-21.602s14.398-9.6016 24-8.3984c15.602 0 30 15.602 30 36v139.2c0 15.602 14.398 30 30 30 15.602 0 30-14.398 30-30l-0.003906-106.8c0-8.3984 3.6016-18 9.6016-24s14.398-9.6016 24-8.3984c15.602 0 30 15.602 30 36v144c0 15.602 14.398 30 30 30s30-14.398 30-30v-91.199c0-8.3984 3.6016-15.602 9.6016-21.602s14.398-9.6016 24-8.3984c15.602 0 30 15.602 30 36z"/>
  <path d="m664.8 324c15.602 3.6016 32.398-8.3984 36-24 2.3984-14.398 3.6016-26.398 3.6016-40.801 1.1992-110.4-87.602-199.2-199.2-199.2-111.6 0-199.2 88.801-199.2 199.2 0 34.801 9.6016 68.398 26.398 98.398 6 9.6016 15.602 15.602 26.398 15.602 6 0 9.6016-2.3984 14.398-3.6016 14.398-8.3984 20.398-26.398 12-40.801-12-20.398-18-44.398-18-68.398 0-76.801 62.398-139.2 139.2-139.2s139.2 62.398 139.2 139.2c0 9.6016 0 18-2.3984 28.801-5.9961 16.801 3.6055 32.402 21.605 34.801z"/>
 </g>
</svg>
