<?xml version="1.0" encoding="UTF-8"?>
<svg width="24px" height="23px" viewBox="0 0 24 23" version="1.1" xmlns="http://www.w3.org/2000/svg" xmlns:xlink="http://www.w3.org/1999/xlink">
    <title>Fill 1</title>
    <g id="My-Team" stroke="none" stroke-width="1" fill="none" fill-rule="evenodd" opacity="0.83">
        <g id="Team-Swipe-to-Zoom" transform="translate(-320.000000, -317.000000)" fill="#FFFFFF">
            <path d="M344,338.717017 L336.526475,331.243492 C338.309671,328.672743 338.643146,325.365296 337.407448,322.491888 C336.172929,319.617239 333.545359,317.582089 330.453085,317.10561 C327.360812,316.63025 324.242504,317.779644 322.200362,320.149449 C320.158191,322.519163 319.480615,325.773361 320.407692,328.7615 C321.334767,331.748488 323.736388,334.048486 326.761156,334.845545 C329.785984,335.642543 333.008366,334.824261 335.286932,332.681589 L342.665706,340.060363 L344,338.717017 Z M329.138317,333.239621 C327.256979,333.239621 325.452411,332.492268 324.121053,331.16197 C322.790755,329.830491 322.043402,328.026105 322.043402,326.144706 C322.043402,324.263308 322.790755,322.458801 324.121053,321.127443 C325.452532,319.797144 327.256918,319.049792 329.138317,319.049792 C331.019715,319.049792 332.824222,319.797144 334.15558,321.127443 C335.485879,322.458922 336.233231,324.263308 336.233231,326.144706 C336.230867,328.026044 335.482337,329.829401 334.152038,331.158337 C332.822921,332.488636 331.019503,333.237169 329.138407,333.239621 L329.138317,333.239621 Z M330.084313,325.198801 L332.922303,325.198801 L332.922303,327.090794 L330.084313,327.090794 L330.084313,329.928784 L328.19232,329.928784 L328.19232,327.090794 L325.35433,327.090794 L325.35433,325.198801 L328.19232,325.198801 L328.19232,322.360811 L330.084313,322.360811 L330.084313,325.198801 Z" id="Fill-1"></path>
        </g>
    </g>
</svg>