<?xml version="1.0" encoding="UTF-8"?>
<svg width="24px" height="23px" viewBox="0 0 24 23" version="1.1" xmlns="http://www.w3.org/2000/svg" xmlns:xlink="http://www.w3.org/1999/xlink">
    <title>Fill 1</title>
    <g id="My-Team" stroke="none" stroke-width="1" fill="none" fill-rule="evenodd">
        <g id="Team-Swipe-to-Zoom" transform="translate(-323.000000, -352.000000)" fill="#FFFFFF">
            <path d="M347,373.717017 L339.526475,366.243492 C341.309671,363.672743 341.643146,360.365296 340.407448,357.491888 C339.172929,354.617239 336.545359,352.582089 333.453085,352.10561 C330.360812,351.63025 327.242504,352.779644 325.200362,355.149449 C323.158191,357.519163 322.480615,360.773361 323.407692,363.7615 C324.334767,366.748488 326.736388,369.048486 329.761156,369.845545 C332.785984,370.642543 336.008366,369.824261 338.286932,367.681589 L345.665706,375.060363 L347,373.717017 Z M332.138317,368.239621 C330.256979,368.239621 328.452411,367.492268 327.121053,366.16197 C325.790755,364.830491 325.043402,363.026105 325.043402,361.144706 C325.043402,359.263308 325.790755,357.458801 327.121053,356.127443 C328.452532,354.797144 330.256918,354.049792 332.138317,354.049792 C334.019715,354.049792 335.824222,354.797144 337.15558,356.127443 C338.485879,357.458922 339.233231,359.263308 339.233231,361.144706 C339.230867,363.026044 338.482337,364.829401 337.152038,366.158337 C335.822921,367.488636 334.019503,368.237169 332.138407,368.239621 L332.138317,368.239621 Z M328.35433,360.198801 L335.922303,360.198801 L335.922303,362.090794 L328.35433,362.090794 L328.35433,360.198801 Z" id="Fill-1"></path>
        </g>
    </g>
</svg>