<svg id="Layer_1" data-name="Layer 1" xmlns="http://www.w3.org/2000/svg" viewBox="0 0 200 200"><defs><style>.cls-1{fill:none;stroke:currentColor;stroke-linecap:round;stroke-linejoin:round;stroke-width:3px;}</style></defs><path class="cls-1" d="M148.67,130.82a65.24,65.24,0,0,1-4.8-4.9A34.06,34.06,0,0,1,136,103.67c0-5.78.22-11.6-.25-17.35A35.61,35.61,0,0,0,110,55.13c-2-.58-4-.93-6.15-1.4,0-3.43-.09-6.88,0-10.33.07-2.37-.66-4.14-2.87-5.16H99.1c-2.2.85-3.07,2.44-3,4.79.11,3.14,0,6.28,0,9.41v1.43A34.7,34.7,0,0,0,83,58C71.68,64.39,65.18,74,64.15,87c-.44,5.48-.21,11-.2,16.52a34.87,34.87,0,0,1-3.8,16.26,35.66,35.66,0,0,1-8.49,10.7A8.52,8.52,0,0,0,48.57,138a8.9,8.9,0,0,0,9.13,8.3q11.16,0,22.32,0c.75,0,1.07.17,1.3,1a19.06,19.06,0,0,0,13.89,13.87c.88.25,1.79.41,2.69.61h4.34a5.53,5.53,0,0,1,.65-.22c8-1.5,13.22-6.18,15.7-13.92.13-.41.23-.84.35-1.3h1.38c7.36,0,14.71,0,22.07,0a8.68,8.68,0,0,0,8.24-5.28A8.88,8.88,0,0,0,148.67,130.82Z"/><line class="cls-1" x1="80.02" y1="146.31" x2="118.94" y2="146.31"/></svg>