<?xml version="1.0" encoding="UTF-8"?>
<svg id="Layer_1" data-name="Layer 1" xmlns="http://www.w3.org/2000/svg" viewBox="0 0 200 200">
  <defs>
    <style>
      .cls-1 {
        fill: none;
        stroke: currentColor;
        stroke-linecap: round;
        stroke-linejoin: round;
        stroke-width: 3px;
      }
    </style>
  </defs>
  <g>
    <path class="cls-1" d="m134.64,143.03c1.82-1.32,3.57-2.75,5.22-4.27l-5.7-14.91c3.05-3.39,5.58-7.25,7.51-11.44l14.94-.72c.84-2.93,1.45-5.95,1.83-9.04l-12.67-7.05c.03-.73.06-1.47.06-2.2,0-4.07-.54-8.01-1.54-11.77l9.9-9.16c-1.29-3.02-2.84-5.91-4.6-8.64l-12.69,2.45c-2.95-3.99-6.54-7.47-10.61-10.31l1.55-12.23c-2.92-1.56-6-2.88-9.19-3.93l-7.54,9.28c-3.49-.86-7.14-1.32-10.9-1.32-1.57,0-3.12.08-4.64.23l-6.5-10.1c-3.23.62-6.37,1.5-9.39,2.63l.19,12.02c-4.84,2.42-9.19,5.67-12.86,9.56l-12.2-3.78c-1.94,2.36-3.68,4.88-5.24,7.53l8.56,9.87c-2.02,4.82-3.24,10.06-3.49,15.56l-13.08,5.49c.06,2.88.33,5.71.79,8.47l14.5,2.32c1.62,4.95,4.06,9.53,7.17,13.57l-7.16,13.91c1.82,1.99,3.77,3.85,5.84,5.57"/>
    <path class="cls-1" d="m77.57,112.48c-4.31-5.11-6.91-11.71-6.91-18.92,0-16.2,13.14-29.34,29.34-29.34s29.34,13.14,29.34,29.34c0,6.97-2.43,13.38-6.5,18.41"/>
  </g>
  <g>
    <path class="cls-1" d="m115.3,98.54v6.67c0,8.2-6.71,14.91-14.91,14.91h0c-8.2,0-14.91-6.71-14.91-14.91v-13.34c0-8.2,6.71-14.91,14.91-14.91h0c8.2,0,14.91,6.71,14.91,14.91v6.67Z"/>
    <path class="cls-1" d="m104.39,124.04l4.21,1.18,7.09,1.99c3.22.9,6.28,2.35,8.9,4.41,2.26,1.77,4.31,4.07,4.31,6.58v13.78c0,5.57-4.56,10.12-10.12,10.12h-37.54c-5.57,0-10.12-4.56-10.12-10.12v-13.78c0-2.51,2.05-4.81,4.31-6.58,2.63-2.06,5.69-3.51,8.9-4.41l7.09-1.99,4.54-1.27"/>
    <line class="cls-1" x1="95.95" y1="123.95" x2="95.95" y2="120.12"/>
    <line class="cls-1" x1="104.39" y1="124.04" x2="104.39" y2="120.12"/>
    <path class="cls-1" d="m108.59,125.22c.11.74.16,1.51.16,2.3,0,6.61-3.92,11.97-8.75,11.97s-8.75-5.36-8.75-11.97c0-.79.06-1.55.16-2.3"/>
    <path class="cls-1" d="m85.48,91.8c2.73-2.95,6.55-6.16,10.13-5.34,2.85.65,3.49,3.38,6.54,4.79,2.42,1.12,6.05,1.66,12.87-2.24"/>
  </g>
</svg>