<svg id="Layer_1" data-name="Layer 1" xmlns="http://www.w3.org/2000/svg" viewBox="0 0 200 200"><defs><style>.cls-1{fill:currentColor;stroke:none;stroke-linecap:round;stroke-linejoin:round;stroke-width:3px;}</style></defs><path class="cls-1" d="M85.57,147c5.89,5.3,13.17,7.41,21.3,4.38,8.45-3.15,13.14-9.58,13.41-18.6.37-12.22.27-24.46.37-36.69,0-5.41.25-16.42.35-21.34,0-1.92.09-5.56,3.92-5.56S128.79,73,128.79,75c0,9.29-.07,40.73-.31,57-.33,22-22.56,35.6-41.88,25.51C76,151.9,71.21,142.6,71.21,130.75q0-24,0-48c0-7.48,0-15,0-22.43.09-8.62,3.83-15.22,11.65-18.94S98.06,38.71,104.72,44a18.92,18.92,0,0,1,7.35,15.2q.14,36.55,0,73.1a12,12,0,0,1-12.31,12,12.09,12.09,0,0,1-12.1-12.28q-.1-29.85-.06-59.71c0-3.2,1.46-5,3.91-5.1s4.14,1.85,4.15,5.17q.06,28.69.08,57.38c0,4.6,1.13,6.39,4.06,6.44s4.24-1.87,4.24-6.57q0-34.36,0-68.73c0-6.94-3.34-11.69-9.16-13.19A12.21,12.21,0,0,0,79.45,58.65c-.19,2.21-.08,4.46-.08,6.69,0,21.84,0,43.69-.05,65.53A22.36,22.36,0,0,0,85.57,147Z"/></svg>