<svg id="Layer_1" data-name="Layer 1" xmlns="http://www.w3.org/2000/svg" viewBox="0 0 200 200"><defs><style>.cls-1,.cls-2{fill:none;stroke:currentColor;stroke-linecap:round;stroke-linejoin:round;}.cls-1{stroke-width:3px;}.cls-2{stroke-width:2.97px;}</style></defs><path class="cls-1" d="M103.71,119.86v13.33c0,3.45,0,20.67,0,24.12l-4.1,4.74-4.11-4.7c0-7,0-27.85,0-34.89V120c-.92,0-1.71-.11-2.5-.11H70.82c-4.82,0-6.36-1.63-5.93-6.45A34.46,34.46,0,0,1,78.77,88.09a3.19,3.19,0,0,0,1.42-2.91c0-8.83,0-17.67-.07-26.5a5.92,5.92,0,0,0-.93-3,24.24,24.24,0,0,1-4.06-13.47c0-2.57,1.5-4.2,4.08-4.21q20.4-.06,40.8,0c2.52,0,4,1.68,4,4.28a24.48,24.48,0,0,1-3.9,13.1,7,7,0,0,0-1.08,3.4c-.08,8.83,0,17.67-.07,26.5A3,3,0,0,0,120.32,88c8.9,6.78,13.35,15.91,14,27,.17,3-1.58,4.8-4.86,4.83-5.8.06-11.6,0-17.4,0Z"/><line class="cls-2" x1="95.86" y1="120.22" x2="104.19" y2="120.22"/></svg>