<?xml version="1.0" encoding="UTF-8"?>
<svg width="22px" height="26px" viewBox="0 0 22 26" version="1.1" xmlns="http://www.w3.org/2000/svg" xmlns:xlink="http://www.w3.org/1999/xlink">
    <title>2022_RankIcons-PresidentialDiamond</title>
    <g id="Page-1" stroke="none" stroke-width="1" fill="none" fill-rule="evenodd" stroke-linecap="round" stroke-linejoin="round">
        <g id="Artboard" transform="translate(-306.000000, -534.000000)" fill-rule="nonzero" stroke="#000000" stroke-width="0.5">
            <g id="2022_RankIcons-PresidentialDiamond" transform="translate(307.000000, 535.000000)">
                <polygon id="Path" fill="#FFE099" points="9.95686613 6.9720022 6.9916085 9.12634303 8.1240687 5.64034193 5.15881107 3.4860011 8.82440593 3.4860011 9.95686613 0 11.0893263 3.4860011 14.7549212 3.4860011 11.7896636 5.64034193 12.9221238 9.12634303"></polygon>
                <polygon id="Path" fill="#FFE099" points="2.1959062 3.96204219 2.2829582 6.39008705 0 7.22374716 2.3370716 7.89114579 2.42333935 10.3199749 3.78087993 8.30444671 6.11716728 8.97184535 4.6200298 7.05826994 5.97678613 5.04274175 3.69382794 5.8756176"></polygon>
                <polygon id="Path" fill="#FFE099" points="17.8040938 3.96204219 17.7170418 6.39008705 20 7.22374716 17.6629284 7.89114579 17.5766607 10.3199749 16.2191201 8.30444671 13.8828327 8.97184535 15.3807545 7.05826994 14.0232139 5.04274175 16.3061721 5.8756176"></polygon>
                <polygon id="Path" fill="#E4E5E6" points="1.65634068 13.2319034 6.33126814 9.11222649 13.8828327 9.11222649 18.3436593 13.2319034 10.0015685 24.0357619"></polygon>
                <polyline id="Path" fill="#E4E5E6" points="3.63736178 11.4861579 5.79797663 13.2319034 9.99215748 9.11222649 14.5557211 13.2319034 16.5438005 11.5692887"></polyline>
                <polyline id="Path" fill="#E4E5E6" points="14.5557211 13.2319034 10.0015685 24.0357619 5.79797663 13.2319034"></polyline>
                <line x1="10.0123559" y1="13.2499412" x2="10.0123559" y2="24.0357619" id="Path" fill="#E4E5E6"></line>
                <line x1="1.65634068" y1="13.2426908" x2="18.3436593" y2="13.2426908" id="Path" fill="#E4E5E6"></line>
            </g>
        </g>
    </g>
</svg>