<svg id="Layer_1" data-name="Layer 1" xmlns="http://www.w3.org/2000/svg" viewBox="0 0 400 400"><defs><style>.cls-1{fill:#bab9ad;}.cls-1,.cls-2,.cls-3{stroke:#000;stroke-linecap:round;stroke-linejoin:round;stroke-width:2px;}.cls-2{fill:#cfcec6;}.cls-3{fill:#e4e5e6;}</style></defs><path class="cls-1" d="M192.64,76.1l17-.72s1,29.28,24.64,32.82a52.86,52.86,0,0,0,28.33-3.7l6,4.46c-8,15.09-20.55,41.1-20.15,54.83H153.84c.4-13.73-12.14-39.74-20.15-54.83l6-4.46A52.84,52.84,0,0,0,168,108.2c23.66-3.54,24.65-32.82,24.65-32.82"/><path class="cls-1" d="M201.15,77.77h0a16.26,16.26,0,1,1,0-32.52h0a16.26,16.26,0,1,1,0,32.52Z"/><path class="cls-1" d="M143.5,94a16.26,16.26,0,1,1-16.26-16.26A16.25,16.25,0,0,1,143.5,94Z"/><circle class="cls-1" cx="275.07" cy="94.03" r="16.26"/><polygon class="cls-2" points="201.16 150.55 191.33 132.87 201.16 115.19 210.98 132.87 201.16 150.55"/><path class="cls-2" d="M174.91,132.87a7,7,0,1,1-7-7A7,7,0,0,1,174.91,132.87Z"/><path class="cls-2" d="M227.4,132.87a7,7,0,1,0,7-7A7,7,0,0,0,227.4,132.87Z"/><polygon class="cls-3" points="93.61 216.32 153.22 163.79 249.51 163.79 306.39 216.32 200.02 354.08 93.61 216.32"/><polyline class="cls-3" points="118.87 194.06 146.42 216.32 199.9 163.79 258.09 216.32 283.44 195.12"/><polyline class="cls-3" points="258.09 216.32 200.02 354.08 146.42 216.32"/><line class="cls-3" x1="200.02" y1="216.55" x2="200.02" y2="354.08"/><line class="cls-3" x1="93.61" y1="216.32" x2="306.39" y2="216.32"/></svg>