<?xml version="1.0" encoding="UTF-8"?>
<svg width="22px" height="31px" viewBox="0 0 22 31" version="1.1" xmlns="http://www.w3.org/2000/svg" xmlns:xlink="http://www.w3.org/1999/xlink">
    <title>2022_RankIcons-CrownDiamond</title>
    <g id="Page-1" stroke="none" stroke-width="1" fill="none" fill-rule="evenodd" stroke-linecap="round" stroke-linejoin="round">
        <g id="Artboard" transform="translate(-141.000000, -529.000000)" fill-rule="nonzero" stroke="#000000" stroke-width="0.5">
            <g id="2022_RankIcons-CrownDiamond" transform="translate(142.000000, 530.000000)">
                <path d="M9.30820566,2.89970862 L10.9061002,2.83203309 C10.9061002,2.83203309 11.000094,5.58417144 13.2221073,5.91690948 C14.1248179,6.04760475 15.0460862,5.92728379 15.8849516,5.56913244 L16.4489144,5.98834477 C15.696964,7.40671116 14.5173419,9.8514898 14.5549394,11.1420246 L5.66124636,11.1420246 C5.69884388,9.8514898 4.52016167,7.40671116 3.76727136,5.98834477 L4.33123414,5.56913244 C5.16950631,5.92703255 6.09010216,6.04735062 6.99219851,5.91690948 C9.21609174,5.58417144 9.3091456,2.83203309 9.3091456,2.83203309" id="Path" fill="#BAB9AD"></path>
                <path d="M10.1080929,3.05667826 L10.1080929,3.05667826 C9.26401447,3.05667826 8.57975374,2.37241752 8.57975374,1.52833913 C8.57975374,0.684260736 9.26401447,0 10.1080929,0 L10.1080929,0 C10.9521713,0 11.636432,0.684260736 11.636432,1.52833913 C11.636432,2.37241752 10.9521713,3.05667826 10.1080929,3.05667826 Z" id="Path" fill="#BAB9AD"></path>
                <path d="M4.68935079,4.58219757 C4.68935079,5.42627597 4.00508977,6.1105367 3.16101137,6.1105367 C2.31693298,6.1105367 1.63267224,5.42627597 1.63267224,4.58219757 C1.63267224,3.73811918 2.31693298,3.05385816 3.16101137,3.05385816 C3.56642857,3.05360888 3.95531262,3.21454972 4.24198593,3.50122302 C4.52865923,3.78789632 4.68960007,4.17678038 4.68935079,4.58219757 L4.68935079,4.58219757 Z" id="Path" fill="#BAB9AD"></path>
                <circle id="Oval" fill="#BAB9AD" cx="17.0561143" cy="4.58501739" r="1.52833913"></circle>
                <polygon id="Path" fill="#CFCEC6" points="10.1090328 9.89754676 9.18507379 8.23573644 10.1090328 6.57392612 11.0320519 8.23573644"></polygon>
                <path d="M7.64169565,8.23573644 C7.64169565,8.59911582 7.34711846,8.89369302 6.98373907,8.89369302 C6.62035969,8.89369302 6.3257825,8.59911582 6.3257825,8.23573644 C6.3257825,7.87235706 6.62035969,7.57777987 6.98373907,7.57777987 C7.34711846,7.57777987 7.64169565,7.87235706 7.64169565,8.23573644 L7.64169565,8.23573644 Z" id="Path" fill="#CFCEC6"></path>
                <path d="M12.57543,8.23573644 C12.57543,8.59911582 12.8700072,8.89369302 13.2333866,8.89369302 C13.596766,8.89369302 13.8913432,8.59911582 13.8913432,8.23573644 C13.8913432,7.87235706 13.596766,7.57777987 13.2333866,7.57777987 C12.8700072,7.57777987 12.57543,7.87235706 12.57543,8.23573644 L12.57543,8.23573644 Z" id="Path" fill="#CFCEC6"></path>
                <polygon id="Path" fill="#E4E5E6" points="0 16.0795188 5.6029702 11.1420246 14.6536329 11.1420246 20 16.0795188 10.0018799 29.0281041"></polygon>
                <polyline id="Path" fill="#E4E5E6" points="2.3742833 13.9872168 4.96381239 16.0795188 9.99060062 11.1420246 15.4600996 16.0795188 17.8428424 14.0868503"></polyline>
                <polyline id="Path" fill="#E4E5E6" points="15.4600996 16.0795188 10.0018799 29.0281041 4.96381239 16.0795188"></polyline>
                <line x1="10.004883" y1="16.1011373" x2="10.004883" y2="29.0281041" id="Path" fill="#E4E5E6"></line>
                <line x1="0" y1="16.0825219" x2="20" y2="16.0825219" id="Path" fill="#E4E5E6"></line>
            </g>
        </g>
    </g>
</svg>