<svg id="Layer_1" data-name="Layer 1" xmlns="http://www.w3.org/2000/svg" viewBox="0 0 400 400"><defs><style>.cls-1{fill:#a07341;stroke:#000;stroke-linecap:round;stroke-linejoin:round;stroke-width:2px;}</style></defs><path class="cls-1" d="M200,46.14A153.86,153.86,0,1,0,353.86,200,153.85,153.85,0,0,0,200,46.14Zm0,268.09A114.23,114.23,0,1,1,314.23,200,114.23,114.23,0,0,1,200,314.23Z"/><path class="cls-1" d="M200,85.77A114.23,114.23,0,1,0,314.23,200,114.23,114.23,0,0,0,200,85.77Zm46.19,185.3L200,237.52l-46.19,33.55,17.65-54.29-46.19-33.56h57.09L200,128.93l17.64,54.29h57.09l-46.18,33.56Z"/></svg>