<?xml version="1.0" encoding="UTF-8"?>
<svg width="22px" height="22px" viewBox="0 0 22 22" version="1.1" xmlns="http://www.w3.org/2000/svg" xmlns:xlink="http://www.w3.org/1999/xlink">
    <title>2022_RankIcons-Bronze</title>
    <g id="Page-1" stroke="none" stroke-width="1" fill="none" fill-rule="evenodd" stroke-linecap="round" stroke-linejoin="round">
        <g id="Artboard" transform="translate(-59.000000, -539.000000)" fill="#A07341" fill-rule="nonzero" stroke="#000000" stroke-width="0.5">
            <g id="2022_RankIcons-Bronze" transform="translate(60.000000, 540.000000)">
                <path d="M10,0 C4.4771525,0 0,4.4771525 0,10 C0,15.5228475 4.4771525,20 10,20 C15.5228475,20 20,15.5228475 20,10 C20,7.34778226 18.9466594,4.80414296 17.0712582,2.9287418 C15.195857,1.05334065 12.6522177,0 10,0 Z M10,17.4242818 C5.89968238,17.4242818 2.57571819,14.1003176 2.57571819,10 C2.57571819,5.89968238 5.89968238,2.57571819 10,2.57571819 C14.1003176,2.57571819 17.4242818,5.89968238 17.4242818,10 C17.4242818,11.969042 16.6420829,13.8574371 15.24976,15.24976 C13.8574371,16.6420829 11.969042,17.4242818 10,17.4242818 L10,17.4242818 Z" id="Shape"></path>
                <path d="M10,2.57571819 C5.89968238,2.57571819 2.57571819,5.89968238 2.57571819,10 C2.57571819,14.1003176 5.89968238,17.4242818 10,17.4242818 C14.1003176,17.4242818 17.4242818,14.1003176 17.4242818,10 C17.4242818,8.03095804 16.6420829,6.14256291 15.24976,4.75023998 C13.8574371,3.35791706 11.969042,2.57571819 10,2.57571819 Z M13.0020798,14.6191343 L10,12.4385805 L6.99792019,14.6191343 L8.14506694,11.0906018 L5.14298713,8.90939815 L8.85350318,8.90939815 L10,5.38086572 L11.1464968,8.90939815 L14.8570129,8.90939815 L11.855583,11.0906018 L13.0020798,14.6191343 Z" id="Shape"></path>
            </g>
        </g>
    </g>
</svg>