<svg id="Layer_1" data-name="Layer 1" xmlns="http://www.w3.org/2000/svg" viewBox="0 0 400 400"><defs><style>.cls-1{fill:#ffe099;}.cls-1,.cls-2{stroke:#000;stroke-linecap:round;stroke-linejoin:round;stroke-width:2px;}.cls-2{fill:#e4e5e6;}</style></defs><polygon class="cls-1" points="199.45 136.5 161.64 163.97 176.08 119.52 138.27 92.05 185.01 92.05 199.45 47.6 213.89 92.05 260.63 92.05 222.82 119.52 237.26 163.97 199.45 136.5"/><polygon class="cls-1" points="100.49 98.12 101.6 129.08 72.49 139.71 102.29 148.22 103.39 179.19 120.7 153.49 150.49 162 131.4 137.6 148.7 111.9 119.59 122.52 100.49 98.12"/><polygon class="cls-1" points="299.51 98.12 298.4 129.08 327.51 139.71 297.71 148.22 296.61 179.19 279.3 153.49 249.51 162 268.61 137.6 251.3 111.9 280.41 122.52 299.51 98.12"/><polygon class="cls-2" points="93.61 216.32 153.22 163.79 249.51 163.79 306.39 216.32 200.02 354.08 93.61 216.32"/><polyline class="cls-2" points="118.87 194.06 146.42 216.32 199.9 163.79 258.09 216.32 283.44 195.12"/><polyline class="cls-2" points="258.09 216.32 200.02 354.08 146.42 216.32"/><line class="cls-2" x1="200.02" y1="216.55" x2="200.02" y2="354.08"/><line class="cls-2" x1="93.61" y1="216.32" x2="306.39" y2="216.32"/></svg>