<?xml version="1.0" encoding="UTF-8"?>
<svg id="Layer_1" data-name="Layer 1" xmlns="http://www.w3.org/2000/svg" viewBox="0 0 200 200">
  <defs>
    <style>
      .cls-1 {
        fill: none;
        stroke: currentColor;
        stroke-linecap: round;
        stroke-linejoin: round;
        stroke-width: 3px;
      }
    </style>
  </defs>
  <polygon class="cls-1" points="42.21 161.54 77.5 86.05 112.79 161.54 42.21 161.54"/>
  <polyline class="cls-1" points="75.9 161.55 112.78 161.55 157.79 161.55 116.84 69.73 93.91 121.16"/>
  <polyline class="cls-1" points="67.79 106.81 72.38 109.42 77.49 106.5 82.62 109.42 87.2 106.81"/>
  <polyline class="cls-1" points="106.5 92.92 111.41 95.56 116.84 92.64 122.28 95.56 127.19 92.92"/>
  <line class="cls-1" x1="116.84" y1="40.29" x2="116.84" y2="73.21"/>
  <path class="cls-1" d="m146.19,61.45c-9.78-6.35-19.56,6.35-29.34,0v-21.16c9.78,6.35,19.56-6.35,29.34,0,0,7.05,0,14.11,0,21.16Z"/>
</svg>