<svg id="Layer_1" data-name="Layer 1" xmlns="http://www.w3.org/2000/svg" viewBox="0 0 200 200"><defs><style>.cls-1{fill:none;stroke:currentColor;stroke-linecap:round;stroke-linejoin:round;stroke-width:3px;}</style></defs><path class="cls-1" d="M108.18,133.33a52.19,52.19,0,0,1-24.75,6.28c-28.52-.09-51.62-22.88-51.62-51s23.1-50.89,51.62-51c28.52.09,51.62,22.88,51.62,51a50.9,50.9,0,0,1-.37,6.08"/><path class="cls-1" d="M97.28,128.42a49.73,49.73,0,0,1-13.85,11.1c-17.3-9.16-29.25-30.69-29.25-50.89S66.13,46.9,83.43,37.74c14.55,7.7,25.31,24.14,28.37,41.2"/><line class="cls-1" x1="31.81" y1="88.63" x2="89.47" y2="88.63"/><line class="cls-1" x1="83.43" y1="37.65" x2="83.43" y2="139.52"/><ellipse class="cls-1" cx="111.35" cy="106.39" rx="21.51" ry="21.18"/><path class="cls-1" d="M111.35,94.11a12.52,12.52,0,0,1,8.82,3.6,12.14,12.14,0,0,1,3.66,8.68"/><line class="cls-1" x1="126.56" y1="121.37" x2="133.31" y2="128.02"/><path class="cls-1" d="M167.2,158.56l-2.86,2.81a3.45,3.45,0,0,1-4.81,0l-27.65-27.22a3.31,3.31,0,0,1,0-4.72l2.87-2.82a3.44,3.44,0,0,1,4.8,0l27.65,27.22A3.32,3.32,0,0,1,167.2,158.56Z"/></svg>