<svg id="Layer_1" data-name="Layer 1" xmlns="http://www.w3.org/2000/svg" viewBox="0 0 200 200"><defs><style>.cls-1{fill:none;stroke:currentColor;stroke-linecap:round;stroke-linejoin:round;stroke-width:3px;}</style></defs><path class="cls-1" d="M158.63,38.11c-.46.18-1.27.48-2.06.81Q98.76,63.76,41,88.6c-1.41.61-2.7,1.29-2.77,3s1.14,2.52,2.53,3.21q17.55,8.73,35.07,17.5c2.62,1.31,5.73,2.13,7.69,4.1s2.88,5.15,4.21,7.82q8.8,17.6,17.58,35.22c1,1.92,2.16,2.67,3.63,2.33s2-1.49,2.54-2.73L159.25,47.77c.81-1.89,1.67-3.77,2.38-5.7S161,38.18,158.63,38.11Z"/><line class="cls-1" x1="83.47" y1="116.44" x2="160.96" y2="39.04"/></svg>