<svg id="Layer_1" data-name="Layer 1" xmlns="http://www.w3.org/2000/svg" viewBox="0 0 200 200"><defs><style>.cls-1{fill:none;stroke:currentColor;stroke-linecap:round;stroke-linejoin:round;stroke-width:3px;}</style></defs><path class="cls-1" d="M34.22,45.68h20.3a1.15,1.15,0,0,1,1,.93L78,123.55a9.15,9.15,0,0,0,.34.92,11.74,11.74,0,0,0-5.29,5.36,11.94,11.94,0,0,0,.62,11.67,12.37,12.37,0,0,0,5.61,4.83,10.71,10.71,0,1,0,18.12,1H129.7a10.71,10.71,0,1,0,18.74,0h2.14a2.89,2.89,0,0,0,0-5.77H84.14a6.52,6.52,0,0,1-5.56-3.1,6.13,6.13,0,0,1-.34-6.07c1.18-2.42,3.64-3.69,7.09-3.69h64a7,7,0,0,0,6.61-5.28l12.5-46.05a7.67,7.67,0,0,0-1.27-6.63A6.69,6.69,0,0,0,161.8,68H147.16a33.48,33.48,0,1,0-14.35,30.25l6.1,6.1h8.18l-9.79-9.79v0a33.41,33.41,0,0,0,9.84-20.77l0-5.77"/></svg>