<svg id="Layer_1" data-name="Layer 1" xmlns="http://www.w3.org/2000/svg" viewBox="0 0 200 200"><defs><style>.cls-1{fill:none;stroke:currentColor;stroke-linecap:round;stroke-linejoin:round;stroke-width:3px;}</style></defs><path class="cls-1" d="M114.15,50.66c0,6.93-5.62,17.94-12.55,17.94s-12.55-11-12.55-17.94a12.55,12.55,0,0,1,25.1,0Z"/><polyline class="cls-1" points="96.74 66.75 96.76 72.61 74.92 78.62 74.92 90.22 127.41 90.22 127.41 78.56 106.36 72.41 106.32 66.89"/><path class="cls-1" d="M148.93,122.33c0,6.93-5.62,17.94-12.55,17.94s-12.55-11-12.55-17.94a12.55,12.55,0,0,1,25.1,0Z"/><polyline class="cls-1" points="131.52 138.42 131.53 144.28 109.69 150.28 109.69 161.89 162.19 161.89 162.19 150.22 141.14 144.08 141.1 138.56"/><path class="cls-1" d="M77,122.33c0,6.93-5.61,17.94-12.54,17.94S52,129.26,52,122.33a12.55,12.55,0,1,1,25.09,0Z"/><polyline class="cls-1" points="59.64 138.42 59.65 144.28 37.81 150.28 37.81 161.89 90.31 161.89 90.31 150.22 69.26 144.08 69.22 138.56"/><polyline class="cls-1" points="101.16 93.75 101.16 99.81 136.32 99.81 136.32 106.39"/><polyline class="cls-1" points="101.16 99.81 64.44 99.81 64.44 106.39"/></svg>