<svg height='100px' width='100px'  fill="#000000" xmlns="http://www.w3.org/2000/svg" xmlns:xlink="http://www.w3.org/1999/xlink" version="1.1" x="0px" y="0px" viewBox="0 0 100 100" style="enable-background:new 0 0 100 100;" xml:space="preserve"><path d="M31.13,22.71c-3.13,2.06-5.87,4.58-8.15,7.5c-0.61,0.78-0.47,1.91,0.31,2.52c0.33,0.26,0.72,0.38,1.1,0.38  c0.53,0,1.06-0.24,1.42-0.69c1.99-2.55,4.37-4.76,7.1-6.59c0.07-0.04,0.14-0.08,0.21-0.12c0.77-0.5,1.54-0.97,2.37-1.39  c3.96-2.09,8.28-3.26,12.79-3.49l1.17-0.04c2.49,0,4.83,0.27,7.16,0.81c0.98,0.23,1.93-0.38,2.16-1.34  c0.23-0.97-0.37-1.93-1.34-2.16c-2.56-0.6-5.24-0.91-8.03-0.91c0,0-0.01,0-0.01,0l-1.26,0.04c-5.07,0.26-9.88,1.57-14.28,3.88  c-0.85,0.43-1.67,0.92-2.49,1.45C31.29,22.62,31.2,22.66,31.13,22.71z"></path><path d="M74.46,40.51c-2.5-5.7-6.97-10.37-12.52-13.13c-1.28-0.7-2.72-1.3-4.29-1.79c-2.61-0.79-5.31-1.19-8.02-1.19l-1.14,0  c-2.79,0.15-5.46,0.7-7.95,1.62c-0.93,0.34-1.41,1.38-1.06,2.31c0.34,0.93,1.39,1.4,2.3,1.06c2.16-0.8,4.48-1.27,6.81-1.4h1.04  c2.36,0,4.71,0.35,6.96,1.03c1.33,0.42,2.55,0.93,3.69,1.55c4.86,2.41,8.73,6.46,10.89,11.4c0.95,2.14,1.57,4.4,1.83,6.67  c0.07,0.81,0.14,1.62,0.14,2.47c0,1.33,0,2.7-0.07,4.03c-0.05,0.99,0.71,1.83,1.7,1.89c0.03,0,0.06,0,0.09,0  c0.95,0,1.74-0.74,1.79-1.7c0.07-1.4,0.07-2.83,0.07-4.22c0-0.95-0.07-1.86-0.15-2.82C76.27,45.59,75.56,42.97,74.46,40.51z"></path><path d="M74.21,63.53c-0.97-0.15-1.88,0.57-2,1.56c-0.7,5.61-1.91,11.25-3.6,16.78c-0.29,0.95,0.25,1.95,1.19,2.24  c0.18,0.05,0.35,0.08,0.53,0.08c0.77,0,1.48-0.5,1.72-1.27c1.75-5.72,3-11.57,3.72-17.39C75.9,64.55,75.2,63.66,74.21,63.53z"></path><path d="M27.76,43.58c0.11-0.17,0.26-0.59,0.31-0.79c0.89-2.22,2.04-4.22,3.45-5.98c1.09-1.39,2.4-2.7,3.79-3.79  c0.78-0.61,0.91-1.74,0.3-2.52c-0.62-0.79-1.75-0.91-2.52-0.3c-1.61,1.26-3.13,2.78-4.38,4.38c-1.61,2.02-2.95,4.34-4.07,7.2  c0,0.02-0.02,0.06-0.04,0.12c-0.09,0.19-0.14,0.35-0.17,0.46c-1.02,2.9-1.54,5.95-1.54,9.07c0.04,7.31-1.47,14.59-4.45,21.65  c-0.39,0.91,0.04,1.96,0.95,2.35c0.23,0.1,0.47,0.14,0.7,0.14c0.7,0,1.36-0.41,1.65-1.1c3.18-7.51,4.77-15.27,4.74-23.06  C26.48,48.72,26.93,46.07,27.76,43.58z"></path><path d="M31.88,50.23c0,0-0.01,0-0.01,0c-0.98,0-1.79,0.79-1.79,1.78c-0.07,8.97-2.15,17.9-6.18,26.53  c-0.42,0.9-0.03,1.96,0.87,2.39c0.25,0.11,0.5,0.17,0.76,0.17c0.67,0,1.32-0.38,1.63-1.04c4.26-9.1,6.45-18.53,6.52-28.02  C33.67,51.05,32.87,50.24,31.88,50.23z"></path><path d="M68.68,64.99c0.36-2.88,0.62-5.79,0.77-8.66c0.07-1.75,0.11-3.46,0.11-5.21c0-0.84-0.08-1.69-0.2-2.49  c-0.14-0.98-1.07-1.64-2.04-1.51c-0.98,0.15-1.65,1.06-1.5,2.04c0.09,0.63,0.16,1.3,0.16,1.96c0,1.7-0.04,3.36-0.1,5.04  c-0.13,2.63-0.37,5.32-0.71,8.21c-0.06,0.25-0.13,0.54-0.16,1l-0.09,0.49c-0.95,6.53-2.66,13.18-5.09,19.77  c-0.14,0.26-0.22,0.55-0.22,0.87c0,0.99,0.82,1.79,1.81,1.79c0.75,0,1.42-0.47,1.68-1.17c2.56-6.91,4.37-13.89,5.43-21.05l0.09-0.5  C68.61,65.51,68.68,65.08,68.68,64.99z"></path><path d="M33.89,42.87c0.81,0.54,1.94,0.31,2.48-0.52c1.23-1.88,2.82-3.44,4.77-4.66c0.57-0.38,1.18-0.73,1.77-1.01  c1.97-0.92,4.03-1.43,6.03-1.52h0.68c5.65,0,10.81,2.82,13.81,7.53c0.34,0.54,0.92,0.83,1.51,0.83c0.33,0,0.67-0.09,0.96-0.28  c0.83-0.53,1.08-1.64,0.55-2.48c-3.66-5.76-9.96-9.19-16.84-9.19l-0.76,0c-2.55,0.11-5.06,0.74-7.47,1.86  c-0.76,0.36-1.52,0.8-2.19,1.25c-2.34,1.47-4.3,3.39-5.83,5.7C32.83,41.21,33.07,42.32,33.89,42.87z"></path><path d="M59.61,64.83c-0.96-0.15-1.9,0.5-2.06,1.48c-1.16,7.16-3.24,14.26-6.19,21.11c-0.39,0.91,0.03,1.97,0.94,2.36  c0.23,0.1,0.47,0.15,0.71,0.15c0.69,0,1.36-0.41,1.65-1.08c3.07-7.12,5.24-14.51,6.44-21.96C61.25,65.91,60.59,64.99,59.61,64.83z"></path><path d="M40.84,51.04c0.06-1.85,0.67-3.58,1.79-5.05c1.53-2.18,3.99-3.51,6.65-3.65h0.54c4.92,0,8.94,3.98,8.97,8.87  c0,3.13-0.1,5.54-0.32,7.83c-0.09,0.99,0.63,1.86,1.62,1.96c0.92,0.12,1.86-0.63,1.96-1.62c0.22-2.37,0.33-4.97,0.33-8.18  c-0.04-6.86-5.67-12.44-12.56-12.44l-0.63,0c-3.86,0.21-7.31,2.09-9.45,5.12c-1.54,2.02-2.4,4.46-2.48,7.12v0.4  c0.04,10.34-2.28,20.52-6.88,30.24c-0.23,0.45-0.41,0.87-0.54,1.32c-0.29,0.95,0.25,1.95,1.2,2.24c0.18,0.05,0.35,0.08,0.52,0.08  c0.77,0,1.48-0.5,1.72-1.27c0.08-0.26,0.19-0.5,0.34-0.79c4.84-10.24,7.28-20.94,7.24-31.81V51.04z"></path><path d="M46.02,56.99c-1-0.09-1.86,0.64-1.95,1.63c-0.8,8.8-3.24,17.59-7.2,26.01c-0.27,0.47-0.39,0.94-0.47,1.29  c-0.23,0.96,0.35,1.93,1.32,2.17c0.14,0.04,0.28,0.05,0.42,0.05c0.81,0,1.54-0.55,1.74-1.37c0.03-0.13,0.05-0.26,0.16-0.49  c4.21-8.93,6.76-18.12,7.6-27.34C47.73,57.95,47.01,57.08,46.02,56.99z"></path><path d="M54.77,59.93c0.09-0.53,0.13-1.05,0.13-1.42c0.2-2.16,0.29-4.54,0.29-7.27c0-0.1-0.02-0.28-0.05-0.45  c-0.23-2.73-2.57-4.86-5.58-4.86h0c-2.88,0.11-5.13,2.5-5.13,5.45v0.04c0,0.99,0.8,1.78,1.79,1.78s1.79-0.82,1.79-1.81  c0-1.03,0.72-1.83,1.79-1.87c0.92,0,1.69,0.69,1.79,1.72c0,2.62-0.09,4.89-0.29,7.11c0,0.33-0.03,0.67-0.1,1.13  c-0.18,1.93-0.42,3.82-0.74,5.78c-1.24,7.33-3.56,14.72-6.89,21.95c-0.41,0.9-0.02,1.97,0.88,2.38c0.24,0.11,0.5,0.16,0.75,0.16  c0.68,0,1.33-0.39,1.63-1.04c3.46-7.51,5.87-15.2,7.17-22.92C54.34,63.8,54.6,61.82,54.77,59.93z"></path><path d="M41.74,14.59c16-3.7,32.32,3.82,40.09,17.79c0.33,0.59,0.94,0.92,1.57,0.92c0.3,0,0.6-0.07,0.87-0.23  c0.87-0.48,1.18-1.58,0.69-2.44C76.42,15.29,58.45,7.05,40.93,11.09c-0.97,0.22-1.57,1.19-1.35,2.15  C39.81,14.21,40.77,14.82,41.74,14.59z"></path><path d="M22.15,38.35c0.41-0.9,0.02-1.97-0.88-2.38c-0.89-0.41-1.97-0.02-2.38,0.88c-2.15,4.66-3.21,9.57-3.18,14.62  c0.02,2.75-0.25,5.51-0.76,8.26c-0.87-3.14-1.37-6.4-1.37-9.66c0-13.46,7.4-25.78,19.3-32.15c0.87-0.47,1.2-1.56,0.73-2.43  c-0.47-0.88-1.56-1.2-2.43-0.74C18.12,21.74,10,35.28,10,50.06c0,5.67,1.23,11.35,3.56,16.47c0.01,0.02,0.04,0.04,0.04,0.06  c0.11,0.3,0.29,0.55,0.54,0.75c0.06,0.05,0.12,0.08,0.19,0.13c0.27,0.17,0.56,0.28,0.9,0.29c0.02,0,0.03,0.02,0.05,0.02  c0.05,0,0.09-0.02,0.13-0.03c0.18-0.01,0.35-0.04,0.51-0.1c0.08-0.03,0.14-0.08,0.21-0.12c0.12-0.07,0.23-0.14,0.33-0.23  c0.06-0.06,0.11-0.12,0.17-0.18c0.09-0.1,0.16-0.22,0.23-0.34c0.04-0.07,0.07-0.13,0.1-0.21c0.02-0.04,0.05-0.08,0.06-0.13  c1.56-4.95,2.33-10,2.29-15C19.27,46.93,20.23,42.52,22.15,38.35z"></path><path d="M86.54,38.67c-0.96,0.25-1.54,1.22-1.29,2.18c0.77,3.02,1.16,6.12,1.16,9.21c0,5.41-1.16,10.6-3.37,15.33  c0.03-0.24,0.07-0.5,0.1-0.73c0.09-0.35,0.09-0.66,0.08-0.69c0.5-4.53,0.73-8.75,0.69-12.91c-0.07-11.85-6.56-23.02-16.93-29.13  c-0.84-0.5-1.95-0.22-2.46,0.63c-0.5,0.85-0.22,1.95,0.63,2.46c9.29,5.48,15.1,15.47,15.16,26.07c0.04,4.02-0.18,8.11-0.67,12.49  c-0.01,0.07-0.04,0.4-0.04,0.46c-0.33,3-0.81,6.09-1.45,9.45c-0.01,0.06,0.01,0.12,0,0.18c-0.01,0.16-0.02,0.31,0,0.47  c0.01,0.08,0.04,0.15,0.07,0.22c0.05,0.15,0.1,0.29,0.18,0.42c0.04,0.07,0.1,0.12,0.16,0.19c0.08,0.09,0.13,0.19,0.22,0.27  c0.03,0.03,0.07,0.03,0.1,0.06c0.04,0.03,0.08,0.04,0.12,0.07c0.16,0.1,0.33,0.17,0.51,0.21c0.02,0.01,0.04,0.02,0.07,0.03  c0.07,0.01,0.15,0.02,0.22,0.02c0.04,0,0.07,0.02,0.11,0.02c0.04,0,0.07-0.02,0.11-0.02c0.2-0.01,0.39-0.05,0.57-0.13  c0.07-0.03,0.13-0.08,0.2-0.12c0.15-0.09,0.29-0.19,0.41-0.32c0.03-0.03,0.07-0.05,0.1-0.08C87,67.85,90,59.25,90,50.06  c0-3.39-0.43-6.79-1.28-10.1C88.48,39,87.51,38.42,86.54,38.67z"></path></svg>