<svg id="Layer_1" data-name="Layer 1" xmlns="http://www.w3.org/2000/svg" viewBox="0 0 200 200"><defs><style>.cls-1{fill:none;stroke:currentColor;stroke-linecap:round;stroke-linejoin:round;stroke-width:3px;}</style></defs><path class="cls-1" d="M84,48.46a23.22,23.22,0,0,1,0-2.9,7.89,7.89,0,0,1,7.86-7c5.43-.06,10.87-.08,16.3,0A8,8,0,0,1,116,47.74a5.49,5.49,0,0,0,0,.72H148.6a8,8,0,0,1,8,6.19,7.89,7.89,0,0,1-5,9.27,1.44,1.44,0,0,0-1.07,1.35q-2.76,17.64-5.58,35.27t-5.59,35.35q-1.8,11.36-3.62,22.7c-.33,2-1.41,2.94-3.51,2.94H68c-2.47,0-3.45-.78-3.84-3.21q-2.36-14.73-4.67-29.48-2.43-15.27-4.85-30.56-2.61-16.5-5.21-33a1.45,1.45,0,0,0-1.07-1.35,8,8,0,0,1,2.29-15.43c1-.06,2,0,3,0H84Z"/><path class="cls-1" d="M78.27,145.9c-.8-8.14-1.51-16.28-2.25-24.43q-1.35-14.76-2.69-29.53c-.52-5.75-1-11.49-1.55-17.24"/><path class="cls-1" d="M128.23,74.43c-.29,3.83-.66,7.66-1,11.49q-1.07,11.72-2.14,23.43l-2.67,29.35q-.32,3.42-.62,6.84"/><line class="cls-1" x1="48.39" y1="63.92" x2="151.62" y2="63.92"/><line class="cls-1" x1="99.99" y1="74.7" x2="99.99" y2="145.9"/><line class="cls-1" x1="83.97" y1="48.46" x2="115.98" y2="48.46"/></svg>