<svg id="Layer_1" data-name="Layer 1" xmlns="http://www.w3.org/2000/svg" viewBox="0 0 200 200"><defs><style>.cls-1{fill:none;stroke:currentColor;stroke-linecap:round;stroke-linejoin:round;stroke-width:3px;}</style></defs><path class="cls-1" d="M81,117c-3.29,3.29-6.35,6.36-9.42,9.42-2.44,2.44-14.6,14.64-17.07,17l-6.24.45.42-6.22c4.95-5,19.68-19.7,24.66-24.68l1.75-1.76c-.62-.68-1.13-1.29-1.69-1.85L57.77,93.71c-3.41-3.41-3.35-5.65.36-8.75a34.44,34.44,0,0,1,27.73-8.09,3.19,3.19,0,0,0,3.06-1.06c6.21-6.28,12.49-12.49,18.69-18.78a6.08,6.08,0,0,0,1.48-2.8,24.18,24.18,0,0,1,6.64-12.39c1.83-1.81,4-1.91,5.87-.09q14.46,14.37,28.84,28.85c1.78,1.79,1.67,4.05-.17,5.88a24.48,24.48,0,0,1-12,6.51,6.86,6.86,0,0,0-3.16,1.64c-6.31,6.19-12.52,12.48-18.79,18.69a3,3,0,0,0-1,2.88c1.5,11.09-1.81,20.69-9.19,29-2,2.24-4.5,2.28-6.85,0C95.1,131.1,91,127,86.93,122.87Z"/></svg>