<svg id="Layer_1" data-name="Layer 1" xmlns="http://www.w3.org/2000/svg" viewBox="0 0 200 200"><defs><style>.cls-1{fill:none;stroke:currentColor;stroke-linecap:round;stroke-linejoin:round;stroke-width:3px;}</style></defs><path class="cls-1" d="M116.44,55.54c0,9-7.31,23.32-16.31,23.32S83.81,64.55,83.81,55.54a16.32,16.32,0,0,1,32.63,0Z"/><polyline class="cls-1" points="93.81 76.46 93.83 84.08 65.44 91.88 65.44 106.96 133.67 106.96 133.67 91.8 106.31 83.81 106.26 76.64"/><line class="cls-1" x1="48.1" y1="121.19" x2="150.6" y2="121.19"/><line class="cls-1" x1="100" y1="107.08" x2="100" y2="121.19"/><line class="cls-1" x1="48.1" y1="121.19" x2="48.1" y2="137.52"/><line class="cls-1" x1="100" y1="121.19" x2="100" y2="137.52"/><line class="cls-1" x1="151.9" y1="121.19" x2="151.9" y2="137.52"/><path class="cls-1" d="M59.7,149.17a11.61,11.61,0,1,1-11.6-11.61A11.6,11.6,0,0,1,59.7,149.17Z"/><path class="cls-1" d="M111.61,149.17A11.61,11.61,0,1,1,100,137.56,11.6,11.6,0,0,1,111.61,149.17Z"/><path class="cls-1" d="M163.51,149.17a11.61,11.61,0,1,1-11.61-11.61A11.6,11.6,0,0,1,163.51,149.17Z"/></svg>